<?xml version="1.0" encoding="UTF-8" standalone="no"?>
<!DOCTYPE svg PUBLIC "-//W3C//DTD SVG 1.1//EN"
 "http://www.w3.org/Graphics/SVG/1.1/DTD/svg11.dtd">
<!-- Generated by graphviz version 2.40.1 (20161225.0304)
 -->
<!-- Title: OnceUponATimeInChosun Pages: 1 -->
<svg width="1032pt" height="623pt"
 viewBox="0.00 0.00 1032.10 623.35" xmlns="http://www.w3.org/2000/svg" xmlns:xlink="http://www.w3.org/1999/xlink">
<g id="graph0" class="graph" transform="scale(1 1) rotate(0) translate(100.8 551.3503)">
<title>OnceUponATimeInChosun</title>
<polygon fill="#ffffff" stroke="transparent" points="-100.8,72 -100.8,-551.3503 931.3,-551.3503 931.3,72 -100.8,72"/>
<g id="clust1" class="cluster">
<title>cluster66939</title>
</g>
<g id="clust3" class="cluster">
<title>cluster146197</title>
</g>
<g id="clust5" class="cluster">
<title>cluster217744</title>
</g>
<g id="clust7" class="cluster">
<title>cluster217829</title>
</g>
<!-- 66938 -->
<g id="node1" class="node">
<title>66938</title>
<g id="a_node1"><a xlink:title="정귀만(鄭貴萬)&#10;1699">
<polygon fill="none" stroke="#000000" stroke-width="2" points="240,-449.3503 121,-449.3503 121,-411.3503 240,-411.3503 240,-449.3503"/>
<text text-anchor="middle" x="180.5" y="-434.1503" font-family="NanumSquareRound" font-size="14.00" fill="#000000">정귀만(鄭貴萬)</text>
<text text-anchor="middle" x="180.5" y="-419.1503" font-family="NanumSquareRound" font-size="14.00" fill="#000000">1699</text>
</a>
</g>
<text text-anchor="middle" x="104" y="-468.1503" font-family="NanumSquareRound" font-size="14.00" fill="#000000">1729</text>
<text text-anchor="middle" x="104" y="-453.1503" font-family="NanumSquareRound" font-size="14.00" fill="#000000">1732</text>
</g>
<!-- 66939 -->
<g id="node2" class="node">
<title>66939</title>
<g id="a_node2"><a xlink:title="조소사(趙召史)&#10;1699">
<ellipse fill="none" stroke="#000000" cx="338.5" cy="-430.3503" rx="84.2917" ry="26.7407"/>
<text text-anchor="middle" x="338.5" y="-434.1503" font-family="NanumSquareRound" font-size="14.00" fill="#000000">조소사(趙召史)</text>
<text text-anchor="middle" x="338.5" y="-419.1503" font-family="NanumSquareRound" font-size="14.00" fill="#000000">1699</text>
</a>
</g>
</g>
<!-- 66938&#45;&#45;66939 -->
<g id="edge1" class="edge">
<title>66938&#45;&#45;66939</title>
<path fill="none" stroke="#000000" d="M240.0586,-430.3503C244.8012,-430.3503 249.5438,-430.3503 254.2865,-430.3503"/>
</g>
<!-- 85272 -->
<g id="node3" class="node">
<title>85272</title>
<g id="a_node3"><a xlink:title="정아지(鄭阿只)&#10;1726">
<ellipse fill="none" stroke="#000000" cx="100.5" cy="-290.6102" rx="84.2917" ry="26.7407"/>
<text text-anchor="middle" x="100.5" y="-294.4102" font-family="NanumSquareRound" font-size="14.00" fill="#000000">정아지(鄭阿只)</text>
<text text-anchor="middle" x="100.5" y="-279.4102" font-family="NanumSquareRound" font-size="14.00" fill="#000000">1726</text>
</a>
</g>
</g>
<!-- 66938&#45;&#45;85272 -->
<g id="edge2" class="edge">
<title>66938&#45;&#45;85272</title>
<path fill="none" stroke="#000000" d="M169.5441,-411.213C155.5936,-386.845 131.417,-344.6144 115.6922,-317.1472"/>
</g>
<!-- 146195 -->
<g id="node4" class="node">
<title>146195</title>
<g id="a_node4"><a xlink:title="정재창(鄭才昌)&#10;1738">
<polygon fill="none" stroke="#000000" stroke-width="2" points="320,-309.6102 201,-309.6102 201,-271.6102 320,-271.6102 320,-309.6102"/>
<text text-anchor="middle" x="260.5" y="-294.4102" font-family="NanumSquareRound" font-size="14.00" fill="#000000">정재창(鄭才昌)</text>
<text text-anchor="middle" x="260.5" y="-279.4102" font-family="NanumSquareRound" font-size="14.00" fill="#000000">1738</text>
</a>
</g>
<text text-anchor="middle" x="218" y="-373.4102" font-family="NanumSquareRound" font-size="14.00" fill="#000000">1762</text>
<text text-anchor="middle" x="218" y="-358.4102" font-family="NanumSquareRound" font-size="14.00" fill="#000000">1780</text>
<text text-anchor="middle" x="218" y="-343.4102" font-family="NanumSquareRound" font-size="14.00" fill="#000000">1783</text>
<text text-anchor="middle" x="218" y="-328.4102" font-family="NanumSquareRound" font-size="14.00" fill="#000000">1786</text>
<text text-anchor="middle" x="218" y="-313.4102" font-family="NanumSquareRound" font-size="14.00" fill="#000000">1789</text>
</g>
<!-- 66938&#45;&#45;146195 -->
<g id="edge3" class="edge">
<title>66938&#45;&#45;146195</title>
<path fill="none" stroke="#000000" d="M191.4559,-411.213C206.6902,-384.6025 234.1193,-336.6907 249.4197,-309.9647"/>
</g>
<!-- 146197 -->
<g id="node5" class="node">
<title>146197</title>
<g id="a_node5"><a xlink:title="김성(金姓)&#10;1738">
<ellipse fill="none" stroke="#000000" cx="397.5" cy="-290.6102" rx="63.7795" ry="26.7407"/>
<text text-anchor="middle" x="397.5" y="-294.4102" font-family="NanumSquareRound" font-size="14.00" fill="#000000">김성(金姓)</text>
<text text-anchor="middle" x="397.5" y="-279.4102" font-family="NanumSquareRound" font-size="14.00" fill="#000000">1738</text>
</a>
</g>
</g>
<!-- 146195&#45;&#45;146197 -->
<g id="edge4" class="edge">
<title>146195&#45;&#45;146197</title>
<path fill="none" stroke="#000000" d="M320.1699,-290.6102C324.701,-290.6102 329.232,-290.6102 333.7631,-290.6102"/>
</g>
<!-- 162106 -->
<g id="node6" class="node">
<title>162106</title>
<g id="a_node6"><a xlink:title="정국택(鄭國澤)&#10;1767">
<polygon fill="none" stroke="#000000" points="119,-169.8701 0,-169.8701 0,-131.8701 119,-131.8701 119,-169.8701"/>
<text text-anchor="middle" x="59.5" y="-154.6701" font-family="NanumSquareRound" font-size="14.00" fill="#000000">정국택(鄭國澤)</text>
<text text-anchor="middle" x="59.5" y="-139.6701" font-family="NanumSquareRound" font-size="14.00" fill="#000000">1767</text>
</a>
</g>
</g>
<!-- 146195&#45;&#45;162106 -->
<g id="edge5" class="edge">
<title>146195&#45;&#45;162106</title>
<path fill="none" stroke="#000000" d="M232.9733,-271.4729C194.5896,-244.7876 125.394,-196.6812 87.0161,-169.9999"/>
</g>
<!-- 178352 -->
<g id="node7" class="node">
<title>178352</title>
<g id="a_node7"><a xlink:title="정국락(鄭國洛)&#10;1772">
<polygon fill="none" stroke="#000000" points="252,-169.8701 133,-169.8701 133,-131.8701 252,-131.8701 252,-169.8701"/>
<text text-anchor="middle" x="192.5" y="-154.6701" font-family="NanumSquareRound" font-size="14.00" fill="#000000">정국락(鄭國洛)</text>
<text text-anchor="middle" x="192.5" y="-139.6701" font-family="NanumSquareRound" font-size="14.00" fill="#000000">1772</text>
</a>
</g>
</g>
<!-- 146195&#45;&#45;178352 -->
<g id="edge6" class="edge">
<title>146195&#45;&#45;178352</title>
<path fill="none" stroke="#000000" d="M251.1875,-271.4729C238.2383,-244.8624 214.9236,-196.9505 201.9183,-170.2246"/>
</g>
<!-- 217743 -->
<g id="node8" class="node">
<title>217743</title>
<g id="a_node8"><a xlink:title="정국태(鄭國泰)&#10;1760">
<polygon fill="none" stroke="#000000" stroke-width="2" points="388,-169.8701 269,-169.8701 269,-131.8701 388,-131.8701 388,-169.8701"/>
<text text-anchor="middle" x="328.5" y="-154.6701" font-family="NanumSquareRound" font-size="14.00" fill="#000000">정국태(鄭國泰)</text>
<text text-anchor="middle" x="328.5" y="-139.6701" font-family="NanumSquareRound" font-size="14.00" fill="#000000">1760</text>
</a>
</g>
<text text-anchor="middle" x="252" y="-218.6701" font-family="NanumSquareRound" font-size="14.00" fill="#000000">1825</text>
<text text-anchor="middle" x="252" y="-203.6701" font-family="NanumSquareRound" font-size="14.00" fill="#000000">1828</text>
<text text-anchor="middle" x="252" y="-188.6701" font-family="NanumSquareRound" font-size="14.00" fill="#000000">1834</text>
<text text-anchor="middle" x="252" y="-173.6701" font-family="NanumSquareRound" font-size="14.00" fill="#000000">1837</text>
</g>
<!-- 146195&#45;&#45;217743 -->
<g id="edge7" class="edge">
<title>146195&#45;&#45;217743</title>
<path fill="none" stroke="#000000" d="M269.8125,-271.4729C282.7617,-244.8624 306.0764,-196.9505 319.0817,-170.2246"/>
</g>
<!-- 217828 -->
<g id="node12" class="node">
<title>217828</title>
<g id="a_node12"><a xlink:title="정국형(鄭國衡)&#10;1765">
<polygon fill="none" stroke="#000000" stroke-width="2" points="673,-169.8701 554,-169.8701 554,-131.8701 673,-131.8701 673,-169.8701"/>
<text text-anchor="middle" x="613.5" y="-154.6701" font-family="NanumSquareRound" font-size="14.00" fill="#000000">정국형(鄭國衡)</text>
<text text-anchor="middle" x="613.5" y="-139.6701" font-family="NanumSquareRound" font-size="14.00" fill="#000000">1765</text>
</a>
</g>
<text text-anchor="middle" x="571" y="-263.6701" font-family="NanumSquareRound" font-size="14.00" fill="#000000">1825</text>
<text text-anchor="middle" x="571" y="-248.6701" font-family="NanumSquareRound" font-size="14.00" fill="#000000">1828</text>
<text text-anchor="middle" x="571" y="-233.6701" font-family="NanumSquareRound" font-size="14.00" fill="#000000">1834</text>
<text text-anchor="middle" x="571" y="-218.6701" font-family="NanumSquareRound" font-size="14.00" fill="#000000">1837</text>
<text text-anchor="middle" x="571" y="-203.6701" font-family="NanumSquareRound" font-size="14.00" fill="#000000">1840</text>
<text text-anchor="middle" x="571" y="-188.6701" font-family="NanumSquareRound" font-size="14.00" fill="#000000">1843</text>
<text text-anchor="middle" x="571" y="-173.6701" font-family="NanumSquareRound" font-size="14.00" fill="#000000">1846</text>
</g>
<!-- 146195&#45;&#45;217828 -->
<g id="edge11" class="edge">
<title>146195&#45;&#45;217828</title>
<path fill="none" stroke="#000000" d="M293.8794,-271.5641C304.1651,-266.0814 315.643,-260.3444 326.5,-255.7401 418.6279,-216.6701 447.6011,-222.9399 540.5,-185.7401 552.2349,-181.0411 564.7412,-175.3363 576.0261,-169.9136"/>
</g>
<!-- 217744 -->
<g id="node9" class="node">
<title>217744</title>
<g id="a_node9"><a xlink:title="진씨(陳氏)&#10;1759">
<ellipse fill="none" stroke="#000000" cx="465.5" cy="-150.8701" rx="63.7795" ry="26.7407"/>
<text text-anchor="middle" x="465.5" y="-154.6701" font-family="NanumSquareRound" font-size="14.00" fill="#000000">진씨(陳氏)</text>
<text text-anchor="middle" x="465.5" y="-139.6701" font-family="NanumSquareRound" font-size="14.00" fill="#000000">1759</text>
</a>
</g>
</g>
<!-- 217743&#45;&#45;217744 -->
<g id="edge8" class="edge">
<title>217743&#45;&#45;217744</title>
<path fill="none" stroke="#000000" d="M388.1699,-150.8701C392.701,-150.8701 397.232,-150.8701 401.7631,-150.8701"/>
</g>
<!-- 217745 -->
<g id="node10" class="node">
<title>217745</title>
<g id="a_node10"><a xlink:title="정상범(鄭相範)&#10;1789">
<polygon fill="none" stroke="#000000" points="326,-38 207,-38 207,0 326,0 326,-38"/>
<text text-anchor="middle" x="266.5" y="-22.8" font-family="NanumSquareRound" font-size="14.00" fill="#000000">정상범(鄭相範)</text>
<text text-anchor="middle" x="266.5" y="-7.8" font-family="NanumSquareRound" font-size="14.00" fill="#000000">1789</text>
</a>
</g>
</g>
<!-- 217743&#45;&#45;217745 -->
<g id="edge9" class="edge">
<title>217743&#45;&#45;217745</title>
<path fill="none" stroke="#000000" d="M319.4847,-131.695C307.7299,-106.6934 287.2863,-63.2112 275.5262,-38.1982"/>
</g>
<!-- 217748 -->
<g id="node11" class="node">
<title>217748</title>
<g id="a_node11"><a xlink:title="정상철(鄭相喆)&#10;1801">
<polygon fill="none" stroke="#000000" points="459,-38 340,-38 340,0 459,0 459,-38"/>
<text text-anchor="middle" x="399.5" y="-22.8" font-family="NanumSquareRound" font-size="14.00" fill="#000000">정상철(鄭相喆)</text>
<text text-anchor="middle" x="399.5" y="-7.8" font-family="NanumSquareRound" font-size="14.00" fill="#000000">1801</text>
</a>
</g>
</g>
<!-- 217743&#45;&#45;217748 -->
<g id="edge10" class="edge">
<title>217743&#45;&#45;217748</title>
<path fill="none" stroke="#000000" d="M338.824,-131.695C352.2851,-106.6934 375.6963,-63.2112 389.1635,-38.1982"/>
</g>
<!-- 217829 -->
<g id="node13" class="node">
<title>217829</title>
<g id="a_node13"><a xlink:title="강씨(姜氏)&#10;1779">
<ellipse fill="none" stroke="#000000" cx="750.5" cy="-150.8701" rx="63.7795" ry="26.7407"/>
<text text-anchor="middle" x="750.5" y="-154.6701" font-family="NanumSquareRound" font-size="14.00" fill="#000000">강씨(姜氏)</text>
<text text-anchor="middle" x="750.5" y="-139.6701" font-family="NanumSquareRound" font-size="14.00" fill="#000000">1779</text>
</a>
</g>
</g>
<!-- 217828&#45;&#45;217829 -->
<g id="edge12" class="edge">
<title>217828&#45;&#45;217829</title>
<path fill="none" stroke="#000000" d="M673.1699,-150.8701C677.701,-150.8701 682.232,-150.8701 686.7631,-150.8701"/>
</g>
<!-- 217830 -->
<g id="node14" class="node">
<title>217830</title>
<g id="a_node14"><a xlink:title="정상혁(鄭相奕)&#10;1794">
<polygon fill="none" stroke="#000000" points="601,-38 482,-38 482,0 601,0 601,-38"/>
<text text-anchor="middle" x="541.5" y="-22.8" font-family="NanumSquareRound" font-size="14.00" fill="#000000">정상혁(鄭相奕)</text>
<text text-anchor="middle" x="541.5" y="-7.8" font-family="NanumSquareRound" font-size="14.00" fill="#000000">1794</text>
</a>
</g>
</g>
<!-- 217828&#45;&#45;217830 -->
<g id="edge13" class="edge">
<title>217828&#45;&#45;217830</title>
<path fill="none" stroke="#000000" d="M603.0306,-131.695C589.3799,-106.6934 565.639,-63.2112 551.9821,-38.1982"/>
</g>
<!-- 243854 -->
<g id="node15" class="node">
<title>243854</title>
<g id="a_node15"><a xlink:title="정상조(鄭相祚)&#10;1817">
<polygon fill="none" stroke="#000000" points="734,-38 615,-38 615,0 734,0 734,-38"/>
<text text-anchor="middle" x="674.5" y="-22.8" font-family="NanumSquareRound" font-size="14.00" fill="#000000">정상조(鄭相祚)</text>
<text text-anchor="middle" x="674.5" y="-7.8" font-family="NanumSquareRound" font-size="14.00" fill="#000000">1817</text>
</a>
</g>
</g>
<!-- 217828&#45;&#45;243854 -->
<g id="edge14" class="edge">
<title>217828&#45;&#45;243854</title>
<path fill="none" stroke="#000000" d="M622.3699,-131.695C633.9351,-106.6934 654.0489,-63.2112 665.6194,-38.1982"/>
</g>
</g>
</svg>
