<?xml version="1.0" encoding="UTF-8" standalone="no"?>
<!DOCTYPE svg PUBLIC "-//W3C//DTD SVG 1.1//EN"
 "http://www.w3.org/Graphics/SVG/1.1/DTD/svg11.dtd">
<!-- Generated by graphviz version 2.40.1 (20161225.0304)
 -->
<!-- Title: OnceUponATimeInChosun Pages: 1 -->
<svg width="2115pt" height="786pt"
 viewBox="0.00 0.00 2114.60 785.86" xmlns="http://www.w3.org/2000/svg" xmlns:xlink="http://www.w3.org/1999/xlink">
<g id="graph0" class="graph" transform="scale(1 1) rotate(0) translate(100.8 713.86)">
<title>OnceUponATimeInChosun</title>
<polygon fill="#ffffff" stroke="transparent" points="-100.8,72 -100.8,-713.86 2013.8,-713.86 2013.8,72 -100.8,72"/>
<g id="clust11" class="cluster">
<title>cluster12</title>
</g>
<g id="clust13" class="cluster">
<title>cluster16</title>
</g>
<g id="clust15" class="cluster">
<title>cluster18</title>
</g>
<g id="clust17" class="cluster">
<title>cluster24</title>
</g>
<g id="clust19" class="cluster">
<title>cluster27</title>
</g>
<g id="clust21" class="cluster">
<title>cluster30</title>
</g>
<g id="clust23" class="cluster">
<title>cluster33</title>
</g>
<g id="clust25" class="cluster">
<title>cluster34</title>
</g>
<g id="clust1" class="cluster">
<title>cluster2</title>
</g>
<g id="clust3" class="cluster">
<title>cluster4</title>
</g>
<g id="clust5" class="cluster">
<title>cluster6</title>
</g>
<g id="clust7" class="cluster">
<title>cluster7</title>
</g>
<g id="clust9" class="cluster">
<title>cluster9</title>
</g>
<!-- 1 -->
<g id="node1" class="node">
<title>1</title>
<g id="a_node1"><a xlink:title="&quot;김조부는 신등면 사람으로, 조선시대 사람이다.&quot;">
<polygon fill="none" stroke="#000000" stroke-width="2" points="622,-596.86 546,-596.86 546,-543.86 622,-543.86 622,-596.86"/>
<text text-anchor="middle" x="584" y="-581.66" font-family="NanumSquareRound" font-size="14.00" fill="#000000">김조부</text>
<text text-anchor="middle" x="584" y="-566.66" font-family="NanumSquareRound" font-size="14.00" fill="#000000">(金造釜)</text>
<text text-anchor="middle" x="584" y="-551.66" font-family="NanumSquareRound" font-size="14.00" fill="#000000">1720</text>
</a>
</g>
<text text-anchor="middle" x="529" y="-630.66" font-family="NanumSquareRound" font-size="14.00" fill="#000000">1732</text>
<text text-anchor="middle" x="529" y="-615.66" font-family="NanumSquareRound" font-size="14.00" fill="#000000">1735</text>
<text text-anchor="middle" x="529" y="-600.66" font-family="NanumSquareRound" font-size="14.00" fill="#000000">1738</text>
</g>
<!-- 2 -->
<g id="node2" class="node">
<title>2</title>
<g id="a_node2"><a xlink:title="&quot;박씨는 김조부의 부인으로, 조선시대 사람이다.&quot;">
<ellipse fill="none" stroke="#000000" cx="721" cy="-570.36" rx="43.6818" ry="37.4533"/>
<text text-anchor="middle" x="721" y="-581.66" font-family="NanumSquareRound" font-size="14.00" fill="#000000">박씨</text>
<text text-anchor="middle" x="721" y="-566.66" font-family="NanumSquareRound" font-size="14.00" fill="#000000">(朴氏)</text>
<text text-anchor="middle" x="721" y="-551.66" font-family="NanumSquareRound" font-size="14.00" fill="#000000">1723</text>
</a>
</g>
</g>
<!-- 1&#45;&#45;2 -->
<g id="edge1" class="edge">
<title>1&#45;&#45;2</title>
<path fill="none" stroke="#000000" d="M622.2637,-570.36C640.5196,-570.36 658.7755,-570.36 677.0315,-570.36"/>
</g>
<!-- 3 -->
<g id="node3" class="node">
<title>3</title>
<g id="a_node3"><a xlink:title="&quot;김조일은 김조부와 박씨의 자로, 조선시대 사람이다.&quot;">
<polygon fill="none" stroke="#000000" stroke-width="2" points="622,-434.9066 546,-434.9066 546,-381.9066 622,-381.9066 622,-434.9066"/>
<text text-anchor="middle" x="584" y="-419.7066" font-family="NanumSquareRound" font-size="14.00" fill="#000000">김조일</text>
<text text-anchor="middle" x="584" y="-404.7066" font-family="NanumSquareRound" font-size="14.00" fill="#000000">(金照一)</text>
<text text-anchor="middle" x="584" y="-389.7066" font-family="NanumSquareRound" font-size="14.00" fill="#000000">1740</text>
</a>
</g>
<text text-anchor="middle" x="529" y="-438.7066" font-family="NanumSquareRound" font-size="14.00" fill="#000000">1774</text>
</g>
<!-- 1&#45;&#45;3 -->
<g id="edge2" class="edge">
<title>1&#45;&#45;3</title>
<path fill="none" stroke="#000000" d="M584,-543.6167C584,-513.5195 584,-464.9233 584,-434.9205"/>
</g>
<!-- 5 -->
<g id="node5" class="node">
<title>5</title>
<g id="a_node5"><a xlink:title="김조이&#10;(金照二)&#10;1742">
<polygon fill="none" stroke="#000000" points="1169,-434.9066 1093,-434.9066 1093,-381.9066 1169,-381.9066 1169,-434.9066"/>
<text text-anchor="middle" x="1131" y="-419.7066" font-family="NanumSquareRound" font-size="14.00" fill="#000000">김조이</text>
<text text-anchor="middle" x="1131" y="-404.7066" font-family="NanumSquareRound" font-size="14.00" fill="#000000">(金照二)</text>
<text text-anchor="middle" x="1131" y="-389.7066" font-family="NanumSquareRound" font-size="14.00" fill="#000000">1742</text>
</a>
</g>
</g>
<!-- 1&#45;&#45;5 -->
<g id="edge4" class="edge">
<title>1&#45;&#45;5</title>
<path fill="none" stroke="#000000" d="M622.2464,-546.9027C636.7594,-538.8784 653.7192,-530.515 670,-524.8833 836.9157,-467.1459 896.8414,-519.048 1061,-453.8833 1072.9881,-449.1245 1085.1013,-442.178 1095.8036,-435.1401"/>
</g>
<!-- 8 -->
<g id="node8" class="node">
<title>8</title>
<g id="a_node8"><a xlink:title="김조삼&#10;(金照三)&#10;1748">
<polygon fill="none" stroke="#000000" stroke-width="2" points="166,-434.9066 90,-434.9066 90,-381.9066 166,-381.9066 166,-434.9066"/>
<text text-anchor="middle" x="128" y="-419.7066" font-family="NanumSquareRound" font-size="14.00" fill="#000000">김조삼</text>
<text text-anchor="middle" x="128" y="-404.7066" font-family="NanumSquareRound" font-size="14.00" fill="#000000">(金照三)</text>
<text text-anchor="middle" x="128" y="-389.7066" font-family="NanumSquareRound" font-size="14.00" fill="#000000">1748</text>
</a>
</g>
<text text-anchor="middle" x="73" y="-438.7066" font-family="NanumSquareRound" font-size="14.00" fill="#000000">1786</text>
</g>
<!-- 1&#45;&#45;8 -->
<g id="edge7" class="edge">
<title>1&#45;&#45;8</title>
<path fill="none" stroke="#000000" d="M545.908,-560.8222C477.9179,-543.2623 331.7552,-503.0737 214,-453.8833 197.948,-447.1778 180.8912,-438.5064 166.2365,-430.5365"/>
</g>
<!-- 4 -->
<g id="node4" class="node">
<title>4</title>
<g id="a_node4"><a xlink:title="이씨&#10;(李氏)&#10;1742">
<ellipse fill="none" stroke="#000000" cx="721" cy="-408.4066" rx="43.6818" ry="37.4533"/>
<text text-anchor="middle" x="721" y="-419.7066" font-family="NanumSquareRound" font-size="14.00" fill="#000000">이씨</text>
<text text-anchor="middle" x="721" y="-404.7066" font-family="NanumSquareRound" font-size="14.00" fill="#000000">(李氏)</text>
<text text-anchor="middle" x="721" y="-389.7066" font-family="NanumSquareRound" font-size="14.00" fill="#000000">1742</text>
</a>
</g>
</g>
<!-- 3&#45;&#45;4 -->
<g id="edge3" class="edge">
<title>3&#45;&#45;4</title>
<path fill="none" stroke="#000000" d="M622.2637,-408.4066C640.5196,-408.4066 658.7755,-408.4066 677.0315,-408.4066"/>
</g>
<!-- 10 -->
<g id="node10" class="node">
<title>10</title>
<g id="a_node10"><a xlink:title="김소사&#10;(金召史)&#10;1760">
<ellipse fill="none" stroke="#000000" cx="561" cy="-232.4533" rx="53.9813" ry="37.4533"/>
<text text-anchor="middle" x="561" y="-243.7533" font-family="NanumSquareRound" font-size="14.00" fill="#000000">김소사</text>
<text text-anchor="middle" x="561" y="-228.7533" font-family="NanumSquareRound" font-size="14.00" fill="#000000">(金召史)</text>
<text text-anchor="middle" x="561" y="-213.7533" font-family="NanumSquareRound" font-size="14.00" fill="#000000">1760</text>
</a>
</g>
</g>
<!-- 3&#45;&#45;10 -->
<g id="edge9" class="edge">
<title>3&#45;&#45;10</title>
<path fill="none" stroke="#000000" d="M580.5068,-381.6831C576.6111,-351.8805 570.2818,-303.4605 565.894,-269.893"/>
</g>
<!-- 11 -->
<g id="node11" class="node">
<title>11</title>
<g id="a_node11"><a xlink:title="김부일&#10;(金富一)&#10;1763">
<polygon fill="none" stroke="#000000" stroke-width="2" points="707,-258.9533 631,-258.9533 631,-205.9533 707,-205.9533 707,-258.9533"/>
<text text-anchor="middle" x="669" y="-243.7533" font-family="NanumSquareRound" font-size="14.00" fill="#000000">김부일</text>
<text text-anchor="middle" x="669" y="-228.7533" font-family="NanumSquareRound" font-size="14.00" fill="#000000">(金富一)</text>
<text text-anchor="middle" x="669" y="-213.7533" font-family="NanumSquareRound" font-size="14.00" fill="#000000">1763</text>
</a>
</g>
<text text-anchor="middle" x="648" y="-322.7533" font-family="NanumSquareRound" font-size="14.00" fill="#000000">1792</text>
<text text-anchor="middle" x="648" y="-307.7533" font-family="NanumSquareRound" font-size="14.00" fill="#000000">1798</text>
<text text-anchor="middle" x="648" y="-292.7533" font-family="NanumSquareRound" font-size="14.00" fill="#000000">1801</text>
<text text-anchor="middle" x="648" y="-277.7533" font-family="NanumSquareRound" font-size="14.00" fill="#000000">1804</text>
<text text-anchor="middle" x="648" y="-262.7533" font-family="NanumSquareRound" font-size="14.00" fill="#000000">1813</text>
</g>
<!-- 3&#45;&#45;11 -->
<g id="edge10" class="edge">
<title>3&#45;&#45;11</title>
<path fill="none" stroke="#000000" d="M596.9097,-381.6831C612.9323,-348.5157 640.0941,-292.2896 656.1084,-259.1395"/>
</g>
<!-- 6 -->
<g id="node6" class="node">
<title>6</title>
<g id="a_node6"><a xlink:title="김성&#10;(金姓)&#10;1742">
<ellipse fill="none" stroke="#000000" cx="1268" cy="-408.4066" rx="43.6818" ry="37.4533"/>
<text text-anchor="middle" x="1268" y="-419.7066" font-family="NanumSquareRound" font-size="14.00" fill="#000000">김성</text>
<text text-anchor="middle" x="1268" y="-404.7066" font-family="NanumSquareRound" font-size="14.00" fill="#000000">(金姓)</text>
<text text-anchor="middle" x="1268" y="-389.7066" font-family="NanumSquareRound" font-size="14.00" fill="#000000">1742</text>
</a>
</g>
</g>
<!-- 5&#45;&#45;6 -->
<g id="edge5" class="edge">
<title>5&#45;&#45;6</title>
<path fill="none" stroke="#000000" d="M1169.2637,-408.4066C1187.5196,-408.4066 1205.7755,-408.4066 1224.0315,-408.4066"/>
</g>
<!-- 7 -->
<g id="node7" class="node">
<title>7</title>
<g id="a_node7"><a xlink:title="박소사&#10;(朴召史)&#10;1750">
<ellipse fill="none" stroke="#000000" cx="1504" cy="-232.4533" rx="53.9813" ry="37.4533"/>
<text text-anchor="middle" x="1504" y="-243.7533" font-family="NanumSquareRound" font-size="14.00" fill="#000000">박소사</text>
<text text-anchor="middle" x="1504" y="-228.7533" font-family="NanumSquareRound" font-size="14.00" fill="#000000">(朴召史)</text>
<text text-anchor="middle" x="1504" y="-213.7533" font-family="NanumSquareRound" font-size="14.00" fill="#000000">1750</text>
</a>
</g>
</g>
<!-- 5&#45;&#45;7 -->
<g id="edge6" class="edge">
<title>5&#45;&#45;7</title>
<path fill="none" stroke="#000000" d="M1169.0472,-387.0511C1183.8257,-379.0844 1201.0161,-370.2134 1217,-362.93 1312.386,-319.4655 1344.1452,-326.5679 1437,-277.93 1447.0872,-272.6462 1457.4987,-266.1533 1467.0193,-259.7454"/>
</g>
<!-- 15 -->
<g id="node15" class="node">
<title>15</title>
<g id="a_node15"><a xlink:title="김부이&#10;(金富二)&#10;1760">
<polygon fill="none" stroke="#000000" points="1283,-258.9533 1207,-258.9533 1207,-205.9533 1283,-205.9533 1283,-258.9533"/>
<text text-anchor="middle" x="1245" y="-243.7533" font-family="NanumSquareRound" font-size="14.00" fill="#000000">김부이</text>
<text text-anchor="middle" x="1245" y="-228.7533" font-family="NanumSquareRound" font-size="14.00" fill="#000000">(金富二)</text>
<text text-anchor="middle" x="1245" y="-213.7533" font-family="NanumSquareRound" font-size="14.00" fill="#000000">1760</text>
</a>
</g>
</g>
<!-- 5&#45;&#45;15 -->
<g id="edge14" class="edge">
<title>5&#45;&#45;15</title>
<path fill="none" stroke="#000000" d="M1148.3141,-381.6831C1169.8033,-348.5157 1206.2321,-292.2896 1227.7101,-259.1395"/>
</g>
<!-- 17 -->
<g id="node17" class="node">
<title>17</title>
<g id="a_node17"><a xlink:title="김부삼&#10;(金富三)&#10;1764">
<polygon fill="none" stroke="#000000" points="1040,-258.9533 964,-258.9533 964,-205.9533 1040,-205.9533 1040,-258.9533"/>
<text text-anchor="middle" x="1002" y="-243.7533" font-family="NanumSquareRound" font-size="14.00" fill="#000000">김부삼</text>
<text text-anchor="middle" x="1002" y="-228.7533" font-family="NanumSquareRound" font-size="14.00" fill="#000000">(金富三)</text>
<text text-anchor="middle" x="1002" y="-213.7533" font-family="NanumSquareRound" font-size="14.00" fill="#000000">1764</text>
</a>
</g>
</g>
<!-- 5&#45;&#45;17 -->
<g id="edge16" class="edge">
<title>5&#45;&#45;17</title>
<path fill="none" stroke="#000000" d="M1111.4077,-381.6831C1087.091,-348.5157 1045.8689,-292.2896 1021.5649,-259.1395"/>
</g>
<!-- 9 -->
<g id="node9" class="node">
<title>9</title>
<g id="a_node9"><a xlink:title="강성&#10;(康姓)&#10;1747">
<ellipse fill="none" stroke="#000000" stroke-width="2" cx="265" cy="-408.4066" rx="43.6818" ry="37.4533"/>
<text text-anchor="middle" x="265" y="-419.7066" font-family="NanumSquareRound" font-size="14.00" fill="#000000">강성</text>
<text text-anchor="middle" x="265" y="-404.7066" font-family="NanumSquareRound" font-size="14.00" fill="#000000">(康姓)</text>
<text text-anchor="middle" x="265" y="-389.7066" font-family="NanumSquareRound" font-size="14.00" fill="#000000">1747</text>
</a>
</g>
<text text-anchor="middle" x="204.1594" y="-464.6833" font-family="NanumSquareRound" font-size="14.00" fill="#000000">1792</text>
<text text-anchor="middle" x="204.1594" y="-449.6833" font-family="NanumSquareRound" font-size="14.00" fill="#000000">1801</text>
</g>
<!-- 8&#45;&#45;9 -->
<g id="edge8" class="edge">
<title>8&#45;&#45;9</title>
<path fill="none" stroke="#000000" d="M166.2637,-408.4066C184.5196,-408.4066 202.7755,-408.4066 221.0315,-408.4066"/>
</g>
<!-- 21 -->
<g id="node21" class="node">
<title>21</title>
<g id="a_node21"><a xlink:title="김부사&#10;(金富四)&#10;1768">
<polygon fill="none" stroke="#000000" points="166,-258.9533 90,-258.9533 90,-205.9533 166,-205.9533 166,-258.9533"/>
<text text-anchor="middle" x="128" y="-243.7533" font-family="NanumSquareRound" font-size="14.00" fill="#000000">김부사</text>
<text text-anchor="middle" x="128" y="-228.7533" font-family="NanumSquareRound" font-size="14.00" fill="#000000">(金富四)</text>
<text text-anchor="middle" x="128" y="-213.7533" font-family="NanumSquareRound" font-size="14.00" fill="#000000">1768</text>
</a>
</g>
</g>
<!-- 8&#45;&#45;21 -->
<g id="edge20" class="edge">
<title>8&#45;&#45;21</title>
<path fill="none" stroke="#000000" d="M128,-381.6831C128,-348.5157 128,-292.2896 128,-259.1395"/>
</g>
<!-- 22 -->
<g id="node22" class="node">
<title>22</title>
<g id="a_node22"><a xlink:title="김부오&#10;(金富五)&#10;1770">
<polygon fill="none" stroke="#000000" points="76,-258.9533 0,-258.9533 0,-205.9533 76,-205.9533 76,-258.9533"/>
<text text-anchor="middle" x="38" y="-243.7533" font-family="NanumSquareRound" font-size="14.00" fill="#000000">김부오</text>
<text text-anchor="middle" x="38" y="-228.7533" font-family="NanumSquareRound" font-size="14.00" fill="#000000">(金富五)</text>
<text text-anchor="middle" x="38" y="-213.7533" font-family="NanumSquareRound" font-size="14.00" fill="#000000">1770</text>
</a>
</g>
</g>
<!-- 8&#45;&#45;22 -->
<g id="edge21" class="edge">
<title>8&#45;&#45;22</title>
<path fill="none" stroke="#000000" d="M114.3309,-381.6831C97.3658,-348.5157 68.6062,-292.2896 51.65,-259.1395"/>
</g>
<!-- 23 -->
<g id="node23" class="node">
<title>23</title>
<g id="a_node23"><a xlink:title="김부륙&#10;(金富六)&#10;1772">
<polygon fill="none" stroke="#000000" points="348,-258.9533 272,-258.9533 272,-205.9533 348,-205.9533 348,-258.9533"/>
<text text-anchor="middle" x="310" y="-243.7533" font-family="NanumSquareRound" font-size="14.00" fill="#000000">김부륙</text>
<text text-anchor="middle" x="310" y="-228.7533" font-family="NanumSquareRound" font-size="14.00" fill="#000000">(金富六)</text>
<text text-anchor="middle" x="310" y="-213.7533" font-family="NanumSquareRound" font-size="14.00" fill="#000000">1772</text>
</a>
</g>
</g>
<!-- 8&#45;&#45;23 -->
<g id="edge22" class="edge">
<title>8&#45;&#45;23</title>
<path fill="none" stroke="#000000" d="M155.6695,-381.6731C182.9608,-355.3028 225.8617,-313.8442 263,-277.93 269.2031,-271.9313 275.8654,-265.4863 282.1676,-259.3886"/>
</g>
<!-- 36 -->
<g id="node36" class="node">
<title>36</title>
<g id="a_node36"><a xlink:title="강유의&#10;(康有爲)&#10;1762">
<polygon fill="none" stroke="#000000" points="256,-258.9533 180,-258.9533 180,-205.9533 256,-205.9533 256,-258.9533"/>
<text text-anchor="middle" x="218" y="-243.7533" font-family="NanumSquareRound" font-size="14.00" fill="#000000">강유의</text>
<text text-anchor="middle" x="218" y="-228.7533" font-family="NanumSquareRound" font-size="14.00" fill="#000000">(康有爲)</text>
<text text-anchor="middle" x="218" y="-213.7533" font-family="NanumSquareRound" font-size="14.00" fill="#000000">1762</text>
</a>
</g>
</g>
<!-- 9&#45;&#45;36 -->
<g id="edge35" class="edge">
<title>9&#45;&#45;36</title>
<path fill="none" stroke="#000000" stroke-dasharray="5,2" d="M255.1473,-371.5211C246.1567,-337.8633 233.0879,-288.9378 225.0877,-258.9873"/>
<text text-anchor="middle" x="256.5" y="-316.73" font-family="NanumSquareRound" font-size="14.00" fill="#000000">사촌</text>
</g>
<!-- 12 -->
<g id="node12" class="node">
<title>12</title>
<g id="a_node12"><a xlink:title="김소사&#10;(金召史)&#10;1761">
<ellipse fill="none" stroke="#000000" cx="816" cy="-232.4533" rx="53.9813" ry="37.4533"/>
<text text-anchor="middle" x="816" y="-243.7533" font-family="NanumSquareRound" font-size="14.00" fill="#000000">김소사</text>
<text text-anchor="middle" x="816" y="-228.7533" font-family="NanumSquareRound" font-size="14.00" fill="#000000">(金召史)</text>
<text text-anchor="middle" x="816" y="-213.7533" font-family="NanumSquareRound" font-size="14.00" fill="#000000">1761</text>
</a>
</g>
</g>
<!-- 11&#45;&#45;12 -->
<g id="edge11" class="edge">
<title>11&#45;&#45;12</title>
<path fill="none" stroke="#000000" d="M707.1855,-232.4533C725.463,-232.4533 743.7404,-232.4533 762.0178,-232.4533"/>
</g>
<!-- 13 -->
<g id="node13" class="node">
<title>13</title>
<g id="a_node13"><a xlink:title="김아지&#10;(金兒只)&#10;">
<polygon fill="none" stroke="#000000" points="619.3172,-29.8143 622.8376,-29.9608 626.3217,-30.18 629.755,-30.4714 633.1239,-30.8341 636.4147,-31.2671 639.6145,-31.7694 642.7107,-32.3394 645.6918,-32.9756 648.5465,-33.6763 651.2646,-34.4396 653.8366,-35.2633 656.254,-36.1453 658.5091,-37.083 660.5953,-38.074 662.5067,-39.1154 664.2387,-40.2045 665.7876,-41.3383 667.1506,-42.5136 668.326,-43.7273 669.313,-44.976 670.1119,-46.2562 670.7237,-47.5646 671.1504,-48.8974 671.3948,-50.2511 671.4606,-51.6219 671.352,-53.006 671.074,-54.3998 670.6323,-55.7993 670.0328,-57.2007 669.2823,-58.6002 668.3875,-59.994 667.3559,-61.3781 666.1949,-62.7489 664.9122,-64.1026 663.5155,-65.4354 662.0128,-66.7438 660.4117,-68.024 658.72,-69.2727 656.9452,-70.4864 655.0945,-71.6617 653.1752,-72.7955 651.1939,-73.8846 649.1571,-74.926 647.071,-75.917 644.9412,-76.8547 642.7731,-77.7367 640.5715,-78.5604 638.3411,-79.3237 636.0858,-80.0244 633.8095,-80.6606 631.5154,-81.2306 629.2066,-81.7329 626.8857,-82.1659 624.5551,-82.5286 622.217,-82.82 619.8732,-83.0392 617.5254,-83.1857 615.1754,-83.2591 612.8246,-83.2591 610.4746,-83.1857 608.1268,-83.0392 605.783,-82.82 603.4449,-82.5286 601.1143,-82.1659 598.7934,-81.7329 596.4846,-81.2306 594.1905,-80.6606 591.9142,-80.0244 589.6589,-79.3237 587.4285,-78.5604 585.2269,-77.7367 583.0588,-76.8547 580.929,-75.917 578.8429,-74.926 576.8061,-73.8846 574.8248,-72.7955 572.9055,-71.6617 571.0548,-70.4864 569.28,-69.2727 567.5883,-68.024 565.9872,-66.7438 564.4845,-65.4354 563.0878,-64.1026 561.8051,-62.7489 560.6441,-61.3781 559.6125,-59.994 558.7177,-58.6002 557.9672,-57.2007 557.3677,-55.7993 556.926,-54.3998 556.648,-53.006 556.5394,-51.6219 556.6052,-50.2511 556.8496,-48.8974 557.2763,-47.5646 557.8881,-46.2562 558.687,-44.976 559.674,-43.7273 560.8494,-42.5136 562.2124,-41.3383 563.7613,-40.2045 565.4933,-39.1154 567.4047,-38.074 569.4909,-37.083 571.746,-36.1453 574.1634,-35.2633 576.7354,-34.4396 579.4535,-33.6763 582.3082,-32.9756 585.2893,-32.3394 588.3855,-31.7694 591.5853,-31.2671 594.8761,-30.8341 598.245,-30.4714 601.6783,-30.18 605.1624,-29.9608 608.6828,-29.8143 612.2252,-29.7409 615.7748,-29.7409 619.3172,-29.8143"/>
<text text-anchor="middle" x="614" y="-60.3" font-family="NanumSquareRound" font-size="14.00" fill="#000000">김아지</text>
<text text-anchor="middle" x="614" y="-45.3" font-family="NanumSquareRound" font-size="14.00" fill="#000000">(金兒只)</text>
</a>
</g>
</g>
<!-- 11&#45;&#45;13 -->
<g id="edge12" class="edge">
<title>11&#45;&#45;13</title>
<path fill="none" stroke="#000000" d="M660.6467,-205.7298C650.2491,-172.4662 632.6019,-116.0101 622.2517,-82.8985"/>
</g>
<!-- 14 -->
<g id="node14" class="node">
<title>14</title>
<g id="a_node14"><a xlink:title="김구일&#10;(金具一)&#10;1782">
<polygon fill="none" stroke="#000000" stroke-width="2" points="761,-83 685,-83 685,-30 761,-30 761,-83"/>
<text text-anchor="middle" x="723" y="-67.8" font-family="NanumSquareRound" font-size="14.00" fill="#000000">김구일</text>
<text text-anchor="middle" x="723" y="-52.8" font-family="NanumSquareRound" font-size="14.00" fill="#000000">(金具一)</text>
<text text-anchor="middle" x="723" y="-37.8" font-family="NanumSquareRound" font-size="14.00" fill="#000000">1782</text>
</a>
</g>
<text text-anchor="middle" x="668" y="-18.8" font-family="NanumSquareRound" font-size="14.00" fill="#000000">1810</text>
<text text-anchor="middle" x="668" y="-3.8" font-family="NanumSquareRound" font-size="14.00" fill="#000000">1813</text>
</g>
<!-- 11&#45;&#45;14 -->
<g id="edge13" class="edge">
<title>11&#45;&#45;14</title>
<path fill="none" stroke="#000000" d="M677.2014,-205.7298C687.3805,-172.5624 704.6363,-116.3363 714.81,-83.1862"/>
</g>
<!-- 16 -->
<g id="node16" class="node">
<title>16</title>
<g id="a_node16"><a xlink:title="진씨&#10;(陳氏)&#10;1758">
<ellipse fill="none" stroke="#000000" cx="1382" cy="-232.4533" rx="43.6818" ry="37.4533"/>
<text text-anchor="middle" x="1382" y="-243.7533" font-family="NanumSquareRound" font-size="14.00" fill="#000000">진씨</text>
<text text-anchor="middle" x="1382" y="-228.7533" font-family="NanumSquareRound" font-size="14.00" fill="#000000">(陳氏)</text>
<text text-anchor="middle" x="1382" y="-213.7533" font-family="NanumSquareRound" font-size="14.00" fill="#000000">1758</text>
</a>
</g>
</g>
<!-- 15&#45;&#45;16 -->
<g id="edge15" class="edge">
<title>15&#45;&#45;16</title>
<path fill="none" stroke="#000000" d="M1283.2637,-232.4533C1301.5196,-232.4533 1319.7755,-232.4533 1338.0315,-232.4533"/>
</g>
<!-- 19 -->
<g id="node19" class="node">
<title>19</title>
<g id="a_node19"><a xlink:title="김구이&#10;(金具二)&#10;1780">
<polygon fill="none" stroke="#000000" points="1283,-83 1207,-83 1207,-30 1283,-30 1283,-83"/>
<text text-anchor="middle" x="1245" y="-67.8" font-family="NanumSquareRound" font-size="14.00" fill="#000000">김구이</text>
<text text-anchor="middle" x="1245" y="-52.8" font-family="NanumSquareRound" font-size="14.00" fill="#000000">(金具二)</text>
<text text-anchor="middle" x="1245" y="-37.8" font-family="NanumSquareRound" font-size="14.00" fill="#000000">1780</text>
</a>
</g>
</g>
<!-- 15&#45;&#45;19 -->
<g id="edge18" class="edge">
<title>15&#45;&#45;19</title>
<path fill="none" stroke="#000000" d="M1245,-205.7298C1245,-172.5624 1245,-116.3363 1245,-83.1862"/>
</g>
<!-- 20 -->
<g id="node20" class="node">
<title>20</title>
<g id="a_node20"><a xlink:title="김구삼&#10;(金具三)&#10;1782">
<polygon fill="none" stroke="#000000" points="1389,-83 1313,-83 1313,-30 1389,-30 1389,-83"/>
<text text-anchor="middle" x="1351" y="-67.8" font-family="NanumSquareRound" font-size="14.00" fill="#000000">김구삼</text>
<text text-anchor="middle" x="1351" y="-52.8" font-family="NanumSquareRound" font-size="14.00" fill="#000000">(金具三)</text>
<text text-anchor="middle" x="1351" y="-37.8" font-family="NanumSquareRound" font-size="14.00" fill="#000000">1782</text>
</a>
</g>
</g>
<!-- 15&#45;&#45;20 -->
<g id="edge19" class="edge">
<title>15&#45;&#45;20</title>
<path fill="none" stroke="#000000" d="M1261.0991,-205.7298C1281.0803,-172.5624 1314.9527,-116.3363 1334.9234,-83.1862"/>
</g>
<!-- 37 -->
<g id="node37" class="node">
<title>37</title>
<g id="a_node37"><a xlink:title="김사촌&#10;(金四寸)&#10;1762">
<polygon fill="none" stroke="#000000" points="1651,-83 1575,-83 1575,-30 1651,-30 1651,-83"/>
<text text-anchor="middle" x="1613" y="-67.8" font-family="NanumSquareRound" font-size="14.00" fill="#000000">김사촌</text>
<text text-anchor="middle" x="1613" y="-52.8" font-family="NanumSquareRound" font-size="14.00" fill="#000000">(金四寸)</text>
<text text-anchor="middle" x="1613" y="-37.8" font-family="NanumSquareRound" font-size="14.00" fill="#000000">1762</text>
</a>
</g>
</g>
<!-- 15&#45;&#45;37 -->
<g id="edge36" class="edge">
<title>15&#45;&#45;37</title>
<path fill="none" stroke="#000000" stroke-dasharray="5,2" d="M1283.4071,-210.719C1298.0815,-202.7947 1315.1072,-194.0512 1331,-186.9767 1431.3231,-142.3187 1469.0739,-158.8708 1563,-101.9767 1571.6313,-96.7484 1580.1061,-89.9007 1587.5555,-83.1116"/>
<text text-anchor="middle" x="1504.5" y="-140.7767" font-family="NanumSquareRound" font-size="14.00" fill="#000000">사촌</text>
</g>
<!-- 18 -->
<g id="node18" class="node">
<title>18</title>
<g id="a_node18"><a xlink:title="박씨&#10;(朴氏)&#10;1764">
<ellipse fill="none" stroke="#000000" cx="1139" cy="-232.4533" rx="43.6818" ry="37.4533"/>
<text text-anchor="middle" x="1139" y="-243.7533" font-family="NanumSquareRound" font-size="14.00" fill="#000000">박씨</text>
<text text-anchor="middle" x="1139" y="-228.7533" font-family="NanumSquareRound" font-size="14.00" fill="#000000">(朴氏)</text>
<text text-anchor="middle" x="1139" y="-213.7533" font-family="NanumSquareRound" font-size="14.00" fill="#000000">1764</text>
</a>
</g>
</g>
<!-- 17&#45;&#45;18 -->
<g id="edge17" class="edge">
<title>17&#45;&#45;18</title>
<path fill="none" stroke="#000000" d="M1040.2637,-232.4533C1058.5196,-232.4533 1076.7755,-232.4533 1095.0315,-232.4533"/>
</g>
<!-- 34 -->
<g id="node34" class="node">
<title>34</title>
<g id="a_node34"><a xlink:title="이소사&#10;(李召史)&#10;1784">
<ellipse fill="none" stroke="#000000" cx="1498" cy="-56.5" rx="53.9813" ry="37.4533"/>
<text text-anchor="middle" x="1498" y="-67.8" font-family="NanumSquareRound" font-size="14.00" fill="#000000">이소사</text>
<text text-anchor="middle" x="1498" y="-52.8" font-family="NanumSquareRound" font-size="14.00" fill="#000000">(李召史)</text>
<text text-anchor="middle" x="1498" y="-37.8" font-family="NanumSquareRound" font-size="14.00" fill="#000000">1784</text>
</a>
</g>
</g>
<!-- 20&#45;&#45;34 -->
<g id="edge32" class="edge">
<title>20&#45;&#45;34</title>
<path fill="none" stroke="#000000" d="M1389.1855,-56.5C1407.463,-56.5 1425.7404,-56.5 1444.0178,-56.5"/>
</g>
<!-- 24 -->
<g id="node24" class="node">
<title>24</title>
<g id="a_node24"><a xlink:title="박씨&#10;(朴氏)&#10;1772">
<ellipse fill="none" stroke="#000000" cx="447" cy="-232.4533" rx="43.6818" ry="37.4533"/>
<text text-anchor="middle" x="447" y="-243.7533" font-family="NanumSquareRound" font-size="14.00" fill="#000000">박씨</text>
<text text-anchor="middle" x="447" y="-228.7533" font-family="NanumSquareRound" font-size="14.00" fill="#000000">(朴氏)</text>
<text text-anchor="middle" x="447" y="-213.7533" font-family="NanumSquareRound" font-size="14.00" fill="#000000">1772</text>
</a>
</g>
</g>
<!-- 23&#45;&#45;24 -->
<g id="edge23" class="edge">
<title>23&#45;&#45;24</title>
<path fill="none" stroke="#000000" d="M348.2637,-232.4533C366.5196,-232.4533 384.7755,-232.4533 403.0315,-232.4533"/>
</g>
<!-- 25 -->
<g id="node26" class="node">
<title>25</title>
<g id="a_node26"><a xlink:title="김구성&#10;(金具晟)&#10;1791">
<polygon fill="none" stroke="#000000" points="348,-83 272,-83 272,-30 348,-30 348,-83"/>
<text text-anchor="middle" x="310" y="-67.8" font-family="NanumSquareRound" font-size="14.00" fill="#000000">김구성</text>
<text text-anchor="middle" x="310" y="-52.8" font-family="NanumSquareRound" font-size="14.00" fill="#000000">(金具晟)</text>
<text text-anchor="middle" x="310" y="-37.8" font-family="NanumSquareRound" font-size="14.00" fill="#000000">1791</text>
</a>
</g>
</g>
<!-- 23&#45;&#45;25 -->
<g id="edge25" class="edge">
<title>23&#45;&#45;25</title>
<path fill="none" stroke="#000000" d="M310,-205.7298C310,-172.5624 310,-116.3363 310,-83.1862"/>
</g>
<!-- 26 -->
<g id="node25" class="node">
<title>26</title>
<g id="a_node25"><a xlink:title="박주일&#10;(朴周一)&#10;1750">
<polygon fill="none" stroke="#000000" stroke-width="2" points="907,-434.9066 831,-434.9066 831,-381.9066 907,-381.9066 907,-434.9066"/>
<text text-anchor="middle" x="869" y="-419.7066" font-family="NanumSquareRound" font-size="14.00" fill="#000000">박주일</text>
<text text-anchor="middle" x="869" y="-404.7066" font-family="NanumSquareRound" font-size="14.00" fill="#000000">(朴周一)</text>
<text text-anchor="middle" x="869" y="-389.7066" font-family="NanumSquareRound" font-size="14.00" fill="#000000">1750</text>
</a>
</g>
<text text-anchor="middle" x="814" y="-468.7066" font-family="NanumSquareRound" font-size="14.00" fill="#000000">1783</text>
<text text-anchor="middle" x="814" y="-453.7066" font-family="NanumSquareRound" font-size="14.00" fill="#000000">1792</text>
<text text-anchor="middle" x="814" y="-438.7066" font-family="NanumSquareRound" font-size="14.00" fill="#000000">1801</text>
</g>
<!-- 26&#45;&#45;24 -->
<g id="edge24" class="edge">
<title>26&#45;&#45;24</title>
<path fill="none" stroke="#000000" d="M830.694,-388.0013C814.1392,-379.6233 794.3833,-370.204 776,-362.93 656.6512,-315.7056 612.3956,-339.9099 500,-277.93 491.6125,-273.3047 483.3545,-267.2034 475.9447,-260.9774"/>
</g>
<!-- 27 -->
<g id="node27" class="node">
<title>27</title>
<g id="a_node27"><a xlink:title="유씨&#10;(柳氏)&#10;1747">
<ellipse fill="none" stroke="#000000" cx="1006" cy="-408.4066" rx="43.6818" ry="37.4533"/>
<text text-anchor="middle" x="1006" y="-419.7066" font-family="NanumSquareRound" font-size="14.00" fill="#000000">유씨</text>
<text text-anchor="middle" x="1006" y="-404.7066" font-family="NanumSquareRound" font-size="14.00" fill="#000000">(柳氏)</text>
<text text-anchor="middle" x="1006" y="-389.7066" font-family="NanumSquareRound" font-size="14.00" fill="#000000">1747</text>
</a>
</g>
</g>
<!-- 26&#45;&#45;27 -->
<g id="edge26" class="edge">
<title>26&#45;&#45;27</title>
<path fill="none" stroke="#000000" d="M907.2637,-408.4066C925.5196,-408.4066 943.7755,-408.4066 962.0315,-408.4066"/>
</g>
<!-- 35 -->
<g id="node35" class="node">
<title>35</title>
<g id="a_node35"><a xlink:title="박참&#10;(朴參)&#10;1778">
<polygon fill="none" stroke="#000000" points="948,-258.9533 886,-258.9533 886,-205.9533 948,-205.9533 948,-258.9533"/>
<text text-anchor="middle" x="917" y="-243.7533" font-family="NanumSquareRound" font-size="14.00" fill="#000000">박참</text>
<text text-anchor="middle" x="917" y="-228.7533" font-family="NanumSquareRound" font-size="14.00" fill="#000000">(朴參)</text>
<text text-anchor="middle" x="917" y="-213.7533" font-family="NanumSquareRound" font-size="14.00" fill="#000000">1778</text>
</a>
</g>
</g>
<!-- 26&#45;&#45;35 -->
<g id="edge34" class="edge">
<title>26&#45;&#45;35</title>
<path fill="none" stroke="#000000" d="M876.2902,-381.6831C885.3382,-348.5157 900.6767,-292.2896 909.72,-259.1395"/>
</g>
<!-- 28 -->
<g id="node28" class="node">
<title>28</title>
<g id="a_node28"><a xlink:title="이증일&#10;(李曾一)&#10;1717">
<polygon fill="none" stroke="#000000" points="1844,-596.86 1768,-596.86 1768,-543.86 1844,-543.86 1844,-596.86"/>
<text text-anchor="middle" x="1806" y="-581.66" font-family="NanumSquareRound" font-size="14.00" fill="#000000">이증일</text>
<text text-anchor="middle" x="1806" y="-566.66" font-family="NanumSquareRound" font-size="14.00" fill="#000000">(李曾一)</text>
<text text-anchor="middle" x="1806" y="-551.66" font-family="NanumSquareRound" font-size="14.00" fill="#000000">1717</text>
</a>
</g>
</g>
<!-- 29 -->
<g id="node29" class="node">
<title>29</title>
<g id="a_node29"><a xlink:title="이조일&#10;(李藻一)&#10;1742">
<polygon fill="none" stroke="#000000" points="1658,-434.9066 1582,-434.9066 1582,-381.9066 1658,-381.9066 1658,-434.9066"/>
<text text-anchor="middle" x="1620" y="-419.7066" font-family="NanumSquareRound" font-size="14.00" fill="#000000">이조일</text>
<text text-anchor="middle" x="1620" y="-404.7066" font-family="NanumSquareRound" font-size="14.00" fill="#000000">(李藻一)</text>
<text text-anchor="middle" x="1620" y="-389.7066" font-family="NanumSquareRound" font-size="14.00" fill="#000000">1742</text>
</a>
</g>
</g>
<!-- 28&#45;&#45;29 -->
<g id="edge27" class="edge">
<title>28&#45;&#45;29</title>
<path fill="none" stroke="#000000" d="M1775.2859,-543.6167C1740.7199,-513.5195 1684.9082,-464.9233 1650.4506,-434.9205"/>
</g>
<!-- 31 -->
<g id="node31" class="node">
<title>31</title>
<g id="a_node31"><a xlink:title="이조이&#10;(李藻二)&#10;1740">
<polygon fill="none" stroke="#000000" points="1913,-434.9066 1837,-434.9066 1837,-381.9066 1913,-381.9066 1913,-434.9066"/>
<text text-anchor="middle" x="1875" y="-419.7066" font-family="NanumSquareRound" font-size="14.00" fill="#000000">이조이</text>
<text text-anchor="middle" x="1875" y="-404.7066" font-family="NanumSquareRound" font-size="14.00" fill="#000000">(李藻二)</text>
<text text-anchor="middle" x="1875" y="-389.7066" font-family="NanumSquareRound" font-size="14.00" fill="#000000">1740</text>
</a>
</g>
</g>
<!-- 28&#45;&#45;31 -->
<g id="edge29" class="edge">
<title>28&#45;&#45;31</title>
<path fill="none" stroke="#000000" d="M1817.3939,-543.6167C1830.2168,-513.5195 1850.9212,-464.9233 1863.7038,-434.9205"/>
</g>
<!-- 30 -->
<g id="node30" class="node">
<title>30</title>
<g id="a_node30"><a xlink:title="강소사&#10;(姜召史)&#10;1745">
<ellipse fill="none" stroke="#000000" cx="1767" cy="-408.4066" rx="53.9813" ry="37.4533"/>
<text text-anchor="middle" x="1767" y="-419.7066" font-family="NanumSquareRound" font-size="14.00" fill="#000000">강소사</text>
<text text-anchor="middle" x="1767" y="-404.7066" font-family="NanumSquareRound" font-size="14.00" fill="#000000">(姜召史)</text>
<text text-anchor="middle" x="1767" y="-389.7066" font-family="NanumSquareRound" font-size="14.00" fill="#000000">1745</text>
</a>
</g>
</g>
<!-- 29&#45;&#45;30 -->
<g id="edge28" class="edge">
<title>29&#45;&#45;30</title>
<path fill="none" stroke="#000000" d="M1658.1855,-408.4066C1676.463,-408.4066 1694.7404,-408.4066 1713.0178,-408.4066"/>
</g>
<!-- 32 -->
<g id="node32" class="node">
<title>32</title>
<g id="a_node32"><a xlink:title="이주일&#10;(李珠一)&#10;1762">
<polygon fill="none" stroke="#000000" points="1658,-258.9533 1582,-258.9533 1582,-205.9533 1658,-205.9533 1658,-258.9533"/>
<text text-anchor="middle" x="1620" y="-243.7533" font-family="NanumSquareRound" font-size="14.00" fill="#000000">이주일</text>
<text text-anchor="middle" x="1620" y="-228.7533" font-family="NanumSquareRound" font-size="14.00" fill="#000000">(李珠一)</text>
<text text-anchor="middle" x="1620" y="-213.7533" font-family="NanumSquareRound" font-size="14.00" fill="#000000">1762</text>
</a>
</g>
</g>
<!-- 29&#45;&#45;32 -->
<g id="edge30" class="edge">
<title>29&#45;&#45;32</title>
<path fill="none" stroke="#000000" d="M1620,-381.6831C1620,-348.5157 1620,-292.2896 1620,-259.1395"/>
</g>
<!-- 33 -->
<g id="node33" class="node">
<title>33</title>
<g id="a_node33"><a xlink:title="소씨&#10;(蘇氏)&#10;1764">
<ellipse fill="none" stroke="#000000" cx="1757" cy="-232.4533" rx="43.6818" ry="37.4533"/>
<text text-anchor="middle" x="1757" y="-243.7533" font-family="NanumSquareRound" font-size="14.00" fill="#000000">소씨</text>
<text text-anchor="middle" x="1757" y="-228.7533" font-family="NanumSquareRound" font-size="14.00" fill="#000000">(蘇氏)</text>
<text text-anchor="middle" x="1757" y="-213.7533" font-family="NanumSquareRound" font-size="14.00" fill="#000000">1764</text>
</a>
</g>
</g>
<!-- 32&#45;&#45;33 -->
<g id="edge31" class="edge">
<title>32&#45;&#45;33</title>
<path fill="none" stroke="#000000" d="M1658.2637,-232.4533C1676.5196,-232.4533 1694.7755,-232.4533 1713.0315,-232.4533"/>
</g>
<!-- 32&#45;&#45;34 -->
<g id="edge33" class="edge">
<title>32&#45;&#45;34</title>
<path fill="none" stroke="#000000" d="M1601.4708,-205.7298C1580.0735,-174.8697 1544.8351,-124.0475 1521.5217,-90.4239"/>
</g>
<!-- 32&#45;&#45;37 -->
<g id="edge37" class="edge">
<title>32&#45;&#45;37</title>
<path fill="none" stroke="#000000" stroke-dasharray="5,2" d="M1618.9369,-205.7298C1617.6173,-172.5624 1615.3805,-116.3363 1614.0617,-83.1862"/>
<text text-anchor="middle" x="1630.5" y="-140.7767" font-family="NanumSquareRound" font-size="14.00" fill="#000000">친구</text>
</g>
</g>
</svg>
