<?xml version="1.0" encoding="UTF-8" standalone="no"?>
<!DOCTYPE svg PUBLIC "-//W3C//DTD SVG 1.1//EN"
 "http://www.w3.org/Graphics/SVG/1.1/DTD/svg11.dtd">
<!-- Generated by graphviz version 2.40.1 (20161225.0304)
 -->
<!-- Title: OnceUponATimeInChosun Pages: 1 -->
<svg width="1983pt" height="786pt"
 viewBox="0.00 0.00 1982.60 785.86" xmlns="http://www.w3.org/2000/svg" xmlns:xlink="http://www.w3.org/1999/xlink">
<g id="graph0" class="graph" transform="scale(1 1) rotate(0) translate(100.8 713.86)">
<title>OnceUponATimeInChosun</title>
<polygon fill="#ffffff" stroke="transparent" points="-100.8,72 -100.8,-713.86 1881.8,-713.86 1881.8,72 -100.8,72"/>
<g id="clust10" class="cluster">
<title>cluster11</title>
</g>
<g id="clust12" class="cluster">
<title>cluster15</title>
</g>
<g id="clust14" class="cluster">
<title>cluster17</title>
</g>
<g id="clust16" class="cluster">
<title>cluster23</title>
</g>
<g id="clust18" class="cluster">
<title>cluster26</title>
</g>
<g id="clust20" class="cluster">
<title>cluster29</title>
</g>
<g id="clust22" class="cluster">
<title>cluster32</title>
</g>
<g id="clust24" class="cluster">
<title>cluster20</title>
</g>
<g id="clust1" class="cluster">
<title>cluster1</title>
</g>
<g id="clust3" class="cluster">
<title>cluster3</title>
</g>
<g id="clust5" class="cluster">
<title>cluster5</title>
</g>
<g id="clust8" class="cluster">
<title>cluster8</title>
</g>
<!-- 1 -->
<g id="node1" class="node">
<title>1</title>
<g id="a_node1"><a xlink:title="&quot;김조부는 신등면 사람으로, 조선시대 사람이다.&quot;">
<polygon fill="none" stroke="#000000" stroke-width="2" points="780,-596.86 704,-596.86 704,-543.86 780,-543.86 780,-596.86"/>
<text text-anchor="middle" x="742" y="-581.66" font-family="NanumSquareRound" font-size="14.00" fill="#000000">김조부</text>
<text text-anchor="middle" x="742" y="-566.66" font-family="NanumSquareRound" font-size="14.00" fill="#000000">(金造釜)</text>
<text text-anchor="middle" x="742" y="-551.66" font-family="NanumSquareRound" font-size="14.00" fill="#000000">1720</text>
</a>
</g>
<text text-anchor="middle" x="687" y="-630.66" font-family="NanumSquareRound" font-size="14.00" fill="#000000">1732</text>
<text text-anchor="middle" x="687" y="-615.66" font-family="NanumSquareRound" font-size="14.00" fill="#000000">1735</text>
<text text-anchor="middle" x="687" y="-600.66" font-family="NanumSquareRound" font-size="14.00" fill="#000000">1738</text>
</g>
<!-- 2 -->
<g id="node2" class="node">
<title>2</title>
<g id="a_node2"><a xlink:title="&quot;박씨는 김조부의 부인으로, 조선시대 사람이다.&quot;">
<ellipse fill="none" stroke="#000000" cx="879" cy="-570.36" rx="43.6818" ry="37.4533"/>
<text text-anchor="middle" x="879" y="-581.66" font-family="NanumSquareRound" font-size="14.00" fill="#000000">박씨</text>
<text text-anchor="middle" x="879" y="-566.66" font-family="NanumSquareRound" font-size="14.00" fill="#000000">(朴氏)</text>
<text text-anchor="middle" x="879" y="-551.66" font-family="NanumSquareRound" font-size="14.00" fill="#000000">1723</text>
</a>
</g>
</g>
<!-- 1&#45;&#45;2 -->
<g id="edge1" class="edge">
<title>1&#45;&#45;2</title>
<path fill="none" stroke="#000000" d="M780.2637,-570.36C798.5196,-570.36 816.7755,-570.36 835.0315,-570.36"/>
</g>
<!-- 3 -->
<g id="node3" class="node">
<title>3</title>
<g id="a_node3"><a xlink:title="&quot;김조일은 김조부와 박씨의 자로, 조선시대 사람이다.&quot;">
<polygon fill="none" stroke="#000000" stroke-width="2" points="780,-434.9066 704,-434.9066 704,-381.9066 780,-381.9066 780,-434.9066"/>
<text text-anchor="middle" x="742" y="-419.7066" font-family="NanumSquareRound" font-size="14.00" fill="#000000">김조일</text>
<text text-anchor="middle" x="742" y="-404.7066" font-family="NanumSquareRound" font-size="14.00" fill="#000000">(金照一)</text>
<text text-anchor="middle" x="742" y="-389.7066" font-family="NanumSquareRound" font-size="14.00" fill="#000000">1740</text>
</a>
</g>
<text text-anchor="middle" x="687" y="-438.7066" font-family="NanumSquareRound" font-size="14.00" fill="#000000">1774</text>
</g>
<!-- 1&#45;&#45;3 -->
<g id="edge2" class="edge">
<title>1&#45;&#45;3</title>
<path fill="none" stroke="#000000" d="M742,-543.6167C742,-513.5195 742,-464.9233 742,-434.9205"/>
</g>
<!-- 5 -->
<g id="node5" class="node">
<title>5</title>
<g id="a_node5"><a xlink:title="김조이&#10;(金照二)&#10;1742">
<polygon fill="none" stroke="#000000" points="1040,-434.9066 964,-434.9066 964,-381.9066 1040,-381.9066 1040,-434.9066"/>
<text text-anchor="middle" x="1002" y="-419.7066" font-family="NanumSquareRound" font-size="14.00" fill="#000000">김조이</text>
<text text-anchor="middle" x="1002" y="-404.7066" font-family="NanumSquareRound" font-size="14.00" fill="#000000">(金照二)</text>
<text text-anchor="middle" x="1002" y="-389.7066" font-family="NanumSquareRound" font-size="14.00" fill="#000000">1742</text>
</a>
</g>
</g>
<!-- 1&#45;&#45;5 -->
<g id="edge4" class="edge">
<title>1&#45;&#45;5</title>
<path fill="none" stroke="#000000" d="M780.192,-547.8655C819.1589,-524.7573 881.2297,-487.5125 934,-453.8833 943.7014,-447.7009 954.0713,-440.8779 963.7154,-434.4388"/>
</g>
<!-- 8 -->
<g id="node8" class="node">
<title>8</title>
<g id="a_node8"><a xlink:title="김조삼&#10;(金照三)&#10;1748">
<polygon fill="none" stroke="#000000" stroke-width="2" points="166,-434.9066 90,-434.9066 90,-381.9066 166,-381.9066 166,-434.9066"/>
<text text-anchor="middle" x="128" y="-419.7066" font-family="NanumSquareRound" font-size="14.00" fill="#000000">김조삼</text>
<text text-anchor="middle" x="128" y="-404.7066" font-family="NanumSquareRound" font-size="14.00" fill="#000000">(金照三)</text>
<text text-anchor="middle" x="128" y="-389.7066" font-family="NanumSquareRound" font-size="14.00" fill="#000000">1748</text>
</a>
</g>
<text text-anchor="middle" x="73" y="-438.7066" font-family="NanumSquareRound" font-size="14.00" fill="#000000">1786</text>
</g>
<!-- 1&#45;&#45;8 -->
<g id="edge7" class="edge">
<title>1&#45;&#45;8</title>
<path fill="none" stroke="#000000" d="M703.8853,-565.5436C615.6051,-553.6224 391.1259,-518.8951 214,-453.8833 197.8276,-447.9474 180.8899,-439.5222 166.3641,-431.5336"/>
</g>
<!-- 4 -->
<g id="node4" class="node">
<title>4</title>
<g id="a_node4"><a xlink:title="이씨&#10;(李氏)&#10;1742">
<ellipse fill="none" stroke="#000000" cx="879" cy="-408.4066" rx="43.6818" ry="37.4533"/>
<text text-anchor="middle" x="879" y="-419.7066" font-family="NanumSquareRound" font-size="14.00" fill="#000000">이씨</text>
<text text-anchor="middle" x="879" y="-404.7066" font-family="NanumSquareRound" font-size="14.00" fill="#000000">(李氏)</text>
<text text-anchor="middle" x="879" y="-389.7066" font-family="NanumSquareRound" font-size="14.00" fill="#000000">1742</text>
</a>
</g>
</g>
<!-- 3&#45;&#45;4 -->
<g id="edge3" class="edge">
<title>3&#45;&#45;4</title>
<path fill="none" stroke="#000000" d="M780.2637,-408.4066C798.5196,-408.4066 816.7755,-408.4066 835.0315,-408.4066"/>
</g>
<!-- 10 -->
<g id="node10" class="node">
<title>10</title>
<g id="a_node10"><a xlink:title="김소사&#10;(金召史)&#10;1760">
<ellipse fill="none" stroke="#000000" cx="894" cy="-232.4533" rx="53.9813" ry="37.4533"/>
<text text-anchor="middle" x="894" y="-243.7533" font-family="NanumSquareRound" font-size="14.00" fill="#000000">김소사</text>
<text text-anchor="middle" x="894" y="-228.7533" font-family="NanumSquareRound" font-size="14.00" fill="#000000">(金召史)</text>
<text text-anchor="middle" x="894" y="-213.7533" font-family="NanumSquareRound" font-size="14.00" fill="#000000">1760</text>
</a>
</g>
</g>
<!-- 3&#45;&#45;10 -->
<g id="edge9" class="edge">
<title>3&#45;&#45;10</title>
<path fill="none" stroke="#000000" d="M765.0855,-381.6831C792.1598,-350.3423 837.02,-298.4127 866.0406,-264.8187"/>
</g>
<!-- 11 -->
<g id="node11" class="node">
<title>11</title>
<g id="a_node11"><a xlink:title="김부일&#10;(金富一)&#10;1763">
<polygon fill="none" stroke="#000000" stroke-width="2" points="661,-258.9533 585,-258.9533 585,-205.9533 661,-205.9533 661,-258.9533"/>
<text text-anchor="middle" x="623" y="-243.7533" font-family="NanumSquareRound" font-size="14.00" fill="#000000">김부일</text>
<text text-anchor="middle" x="623" y="-228.7533" font-family="NanumSquareRound" font-size="14.00" fill="#000000">(金富一)</text>
<text text-anchor="middle" x="623" y="-213.7533" font-family="NanumSquareRound" font-size="14.00" fill="#000000">1763</text>
</a>
</g>
<text text-anchor="middle" x="568" y="-322.7533" font-family="NanumSquareRound" font-size="14.00" fill="#000000">1792</text>
<text text-anchor="middle" x="568" y="-307.7533" font-family="NanumSquareRound" font-size="14.00" fill="#000000">1798</text>
<text text-anchor="middle" x="568" y="-292.7533" font-family="NanumSquareRound" font-size="14.00" fill="#000000">1801</text>
<text text-anchor="middle" x="568" y="-277.7533" font-family="NanumSquareRound" font-size="14.00" fill="#000000">1804</text>
<text text-anchor="middle" x="568" y="-262.7533" font-family="NanumSquareRound" font-size="14.00" fill="#000000">1813</text>
</g>
<!-- 3&#45;&#45;11 -->
<g id="edge10" class="edge">
<title>3&#45;&#45;11</title>
<path fill="none" stroke="#000000" d="M723.9265,-381.6831C701.4948,-348.5157 663.4682,-292.2896 641.0483,-259.1395"/>
</g>
<!-- 6 -->
<g id="node6" class="node">
<title>6</title>
<g id="a_node6"><a xlink:title="김성&#10;(金姓)&#10;1742">
<ellipse fill="none" stroke="#000000" cx="1261" cy="-408.4066" rx="43.6818" ry="37.4533"/>
<text text-anchor="middle" x="1261" y="-419.7066" font-family="NanumSquareRound" font-size="14.00" fill="#000000">김성</text>
<text text-anchor="middle" x="1261" y="-404.7066" font-family="NanumSquareRound" font-size="14.00" fill="#000000">(金姓)</text>
<text text-anchor="middle" x="1261" y="-389.7066" font-family="NanumSquareRound" font-size="14.00" fill="#000000">1742</text>
</a>
</g>
</g>
<!-- 5&#45;&#45;6 -->
<g id="edge5" class="edge">
<title>5&#45;&#45;6</title>
<path fill="none" stroke="#000000" d="M1023.248,-435.1367C1040.3115,-454.3047 1066.1283,-478.5752 1095,-489.3833 1139.9534,-506.2115 1160.3056,-511.3194 1203,-489.3833 1221.765,-479.7419 1235.8171,-460.8992 1245.3865,-443.8149"/>
</g>
<!-- 7 -->
<g id="node7" class="node">
<title>7</title>
<g id="a_node7"><a xlink:title="박소사&#10;(朴召史)&#10;1750">
<ellipse fill="none" stroke="#000000" cx="1149" cy="-408.4066" rx="53.9813" ry="37.4533"/>
<text text-anchor="middle" x="1149" y="-419.7066" font-family="NanumSquareRound" font-size="14.00" fill="#000000">박소사</text>
<text text-anchor="middle" x="1149" y="-404.7066" font-family="NanumSquareRound" font-size="14.00" fill="#000000">(朴召史)</text>
<text text-anchor="middle" x="1149" y="-389.7066" font-family="NanumSquareRound" font-size="14.00" fill="#000000">1750</text>
</a>
</g>
</g>
<!-- 5&#45;&#45;7 -->
<g id="edge6" class="edge">
<title>5&#45;&#45;7</title>
<path fill="none" stroke="#000000" d="M1040.1855,-408.4066C1058.463,-408.4066 1076.7404,-408.4066 1095.0178,-408.4066"/>
</g>
<!-- 15 -->
<g id="node15" class="node">
<title>15</title>
<g id="a_node15"><a xlink:title="김부이&#10;(金富二)&#10;1760">
<polygon fill="none" stroke="#000000" points="1040,-258.9533 964,-258.9533 964,-205.9533 1040,-205.9533 1040,-258.9533"/>
<text text-anchor="middle" x="1002" y="-243.7533" font-family="NanumSquareRound" font-size="14.00" fill="#000000">김부이</text>
<text text-anchor="middle" x="1002" y="-228.7533" font-family="NanumSquareRound" font-size="14.00" fill="#000000">(金富二)</text>
<text text-anchor="middle" x="1002" y="-213.7533" font-family="NanumSquareRound" font-size="14.00" fill="#000000">1760</text>
</a>
</g>
</g>
<!-- 5&#45;&#45;15 -->
<g id="edge14" class="edge">
<title>5&#45;&#45;15</title>
<path fill="none" stroke="#000000" d="M1002,-381.6831C1002,-348.5157 1002,-292.2896 1002,-259.1395"/>
</g>
<!-- 17 -->
<g id="node17" class="node">
<title>17</title>
<g id="a_node17"><a xlink:title="김부삼&#10;(金富三)&#10;1764">
<polygon fill="none" stroke="#000000" points="1283,-258.9533 1207,-258.9533 1207,-205.9533 1283,-205.9533 1283,-258.9533"/>
<text text-anchor="middle" x="1245" y="-243.7533" font-family="NanumSquareRound" font-size="14.00" fill="#000000">김부삼</text>
<text text-anchor="middle" x="1245" y="-228.7533" font-family="NanumSquareRound" font-size="14.00" fill="#000000">(金富三)</text>
<text text-anchor="middle" x="1245" y="-213.7533" font-family="NanumSquareRound" font-size="14.00" fill="#000000">1764</text>
</a>
</g>
</g>
<!-- 5&#45;&#45;17 -->
<g id="edge16" class="edge">
<title>5&#45;&#45;17</title>
<path fill="none" stroke="#000000" d="M1040.195,-384.5615C1079.7009,-359.416 1142.6832,-317.9669 1194,-277.93 1201.4825,-272.0922 1209.2689,-265.4619 1216.4386,-259.1046"/>
</g>
<!-- 9 -->
<g id="node9" class="node">
<title>9</title>
<g id="a_node9"><a xlink:title="강성&#10;(康姓)&#10;1747">
<ellipse fill="none" stroke="#000000" stroke-width="2" cx="265" cy="-408.4066" rx="43.6818" ry="37.4533"/>
<text text-anchor="middle" x="265" y="-419.7066" font-family="NanumSquareRound" font-size="14.00" fill="#000000">강성</text>
<text text-anchor="middle" x="265" y="-404.7066" font-family="NanumSquareRound" font-size="14.00" fill="#000000">(康姓)</text>
<text text-anchor="middle" x="265" y="-389.7066" font-family="NanumSquareRound" font-size="14.00" fill="#000000">1747</text>
</a>
</g>
<text text-anchor="middle" x="204.1594" y="-464.6833" font-family="NanumSquareRound" font-size="14.00" fill="#000000">1792</text>
<text text-anchor="middle" x="204.1594" y="-449.6833" font-family="NanumSquareRound" font-size="14.00" fill="#000000">1801</text>
</g>
<!-- 8&#45;&#45;9 -->
<g id="edge8" class="edge">
<title>8&#45;&#45;9</title>
<path fill="none" stroke="#000000" d="M166.2637,-408.4066C184.5196,-408.4066 202.7755,-408.4066 221.0315,-408.4066"/>
</g>
<!-- 21 -->
<g id="node21" class="node">
<title>21</title>
<g id="a_node21"><a xlink:title="김부사&#10;(金富四)&#10;1768">
<polygon fill="none" stroke="#000000" points="76,-258.9533 0,-258.9533 0,-205.9533 76,-205.9533 76,-258.9533"/>
<text text-anchor="middle" x="38" y="-243.7533" font-family="NanumSquareRound" font-size="14.00" fill="#000000">김부사</text>
<text text-anchor="middle" x="38" y="-228.7533" font-family="NanumSquareRound" font-size="14.00" fill="#000000">(金富四)</text>
<text text-anchor="middle" x="38" y="-213.7533" font-family="NanumSquareRound" font-size="14.00" fill="#000000">1768</text>
</a>
</g>
</g>
<!-- 8&#45;&#45;21 -->
<g id="edge20" class="edge">
<title>8&#45;&#45;21</title>
<path fill="none" stroke="#000000" d="M114.3309,-381.6831C97.3658,-348.5157 68.6062,-292.2896 51.65,-259.1395"/>
</g>
<!-- 22 -->
<g id="node22" class="node">
<title>22</title>
<g id="a_node22"><a xlink:title="김부오&#10;(金富五)&#10;1770">
<polygon fill="none" stroke="#000000" points="166,-258.9533 90,-258.9533 90,-205.9533 166,-205.9533 166,-258.9533"/>
<text text-anchor="middle" x="128" y="-243.7533" font-family="NanumSquareRound" font-size="14.00" fill="#000000">김부오</text>
<text text-anchor="middle" x="128" y="-228.7533" font-family="NanumSquareRound" font-size="14.00" fill="#000000">(金富五)</text>
<text text-anchor="middle" x="128" y="-213.7533" font-family="NanumSquareRound" font-size="14.00" fill="#000000">1770</text>
</a>
</g>
</g>
<!-- 8&#45;&#45;22 -->
<g id="edge21" class="edge">
<title>8&#45;&#45;22</title>
<path fill="none" stroke="#000000" d="M128,-381.6831C128,-348.5157 128,-292.2896 128,-259.1395"/>
</g>
<!-- 23 -->
<g id="node23" class="node">
<title>23</title>
<g id="a_node23"><a xlink:title="김부륙&#10;(金富六)&#10;1772">
<polygon fill="none" stroke="#000000" points="348,-258.9533 272,-258.9533 272,-205.9533 348,-205.9533 348,-258.9533"/>
<text text-anchor="middle" x="310" y="-243.7533" font-family="NanumSquareRound" font-size="14.00" fill="#000000">김부륙</text>
<text text-anchor="middle" x="310" y="-228.7533" font-family="NanumSquareRound" font-size="14.00" fill="#000000">(金富六)</text>
<text text-anchor="middle" x="310" y="-213.7533" font-family="NanumSquareRound" font-size="14.00" fill="#000000">1772</text>
</a>
</g>
</g>
<!-- 8&#45;&#45;23 -->
<g id="edge22" class="edge">
<title>8&#45;&#45;23</title>
<path fill="none" stroke="#000000" d="M155.6695,-381.6731C182.9608,-355.3028 225.8617,-313.8442 263,-277.93 269.2031,-271.9313 275.8654,-265.4863 282.1676,-259.3886"/>
</g>
<!-- 36 -->
<g id="node36" class="node">
<title>36</title>
<g id="a_node36"><a xlink:title="강유의&#10;(康有爲)&#10;1762">
<polygon fill="none" stroke="#000000" points="256,-258.9533 180,-258.9533 180,-205.9533 256,-205.9533 256,-258.9533"/>
<text text-anchor="middle" x="218" y="-243.7533" font-family="NanumSquareRound" font-size="14.00" fill="#000000">강유의</text>
<text text-anchor="middle" x="218" y="-228.7533" font-family="NanumSquareRound" font-size="14.00" fill="#000000">(康有爲)</text>
<text text-anchor="middle" x="218" y="-213.7533" font-family="NanumSquareRound" font-size="14.00" fill="#000000">1762</text>
</a>
</g>
</g>
<!-- 9&#45;&#45;36 -->
<g id="edge35" class="edge">
<title>9&#45;&#45;36</title>
<path fill="none" stroke="#000000" stroke-dasharray="5,2" d="M255.1473,-371.5211C246.1567,-337.8633 233.0879,-288.9378 225.0877,-258.9873"/>
<text text-anchor="middle" x="256.5" y="-316.73" font-family="NanumSquareRound" font-size="14.00" fill="#000000">사촌</text>
</g>
<!-- 12 -->
<g id="node12" class="node">
<title>12</title>
<g id="a_node12"><a xlink:title="김소사&#10;(金召史)&#10;1761">
<ellipse fill="none" stroke="#000000" cx="770" cy="-232.4533" rx="53.9813" ry="37.4533"/>
<text text-anchor="middle" x="770" y="-243.7533" font-family="NanumSquareRound" font-size="14.00" fill="#000000">김소사</text>
<text text-anchor="middle" x="770" y="-228.7533" font-family="NanumSquareRound" font-size="14.00" fill="#000000">(金召史)</text>
<text text-anchor="middle" x="770" y="-213.7533" font-family="NanumSquareRound" font-size="14.00" fill="#000000">1761</text>
</a>
</g>
</g>
<!-- 11&#45;&#45;12 -->
<g id="edge11" class="edge">
<title>11&#45;&#45;12</title>
<path fill="none" stroke="#000000" d="M661.1855,-232.4533C679.463,-232.4533 697.7404,-232.4533 716.0178,-232.4533"/>
</g>
<!-- 13 -->
<g id="node13" class="node">
<title>13</title>
<g id="a_node13"><a xlink:title="김아지&#10;(金兒只)&#10;">
<polygon fill="none" stroke="#000000" points="573.3172,-29.8143 576.8376,-29.9608 580.3217,-30.18 583.755,-30.4714 587.1239,-30.8341 590.4147,-31.2671 593.6145,-31.7694 596.7107,-32.3394 599.6918,-32.9756 602.5465,-33.6763 605.2646,-34.4396 607.8366,-35.2633 610.254,-36.1453 612.5091,-37.083 614.5953,-38.074 616.5067,-39.1154 618.2387,-40.2045 619.7876,-41.3383 621.1506,-42.5136 622.326,-43.7273 623.313,-44.976 624.1119,-46.2562 624.7237,-47.5646 625.1504,-48.8974 625.3948,-50.2511 625.4606,-51.6219 625.352,-53.006 625.074,-54.3998 624.6323,-55.7993 624.0328,-57.2007 623.2823,-58.6002 622.3875,-59.994 621.3559,-61.3781 620.1949,-62.7489 618.9122,-64.1026 617.5155,-65.4354 616.0128,-66.7438 614.4117,-68.024 612.72,-69.2727 610.9452,-70.4864 609.0945,-71.6617 607.1752,-72.7955 605.1939,-73.8846 603.1571,-74.926 601.071,-75.917 598.9412,-76.8547 596.7731,-77.7367 594.5715,-78.5604 592.3411,-79.3237 590.0858,-80.0244 587.8095,-80.6606 585.5154,-81.2306 583.2066,-81.7329 580.8857,-82.1659 578.5551,-82.5286 576.217,-82.82 573.8732,-83.0392 571.5254,-83.1857 569.1754,-83.2591 566.8246,-83.2591 564.4746,-83.1857 562.1268,-83.0392 559.783,-82.82 557.4449,-82.5286 555.1143,-82.1659 552.7934,-81.7329 550.4846,-81.2306 548.1905,-80.6606 545.9142,-80.0244 543.6589,-79.3237 541.4285,-78.5604 539.2269,-77.7367 537.0588,-76.8547 534.929,-75.917 532.8429,-74.926 530.8061,-73.8846 528.8248,-72.7955 526.9055,-71.6617 525.0548,-70.4864 523.28,-69.2727 521.5883,-68.024 519.9872,-66.7438 518.4845,-65.4354 517.0878,-64.1026 515.8051,-62.7489 514.6441,-61.3781 513.6125,-59.994 512.7177,-58.6002 511.9672,-57.2007 511.3677,-55.7993 510.926,-54.3998 510.648,-53.006 510.5394,-51.6219 510.6052,-50.2511 510.8496,-48.8974 511.2763,-47.5646 511.8881,-46.2562 512.687,-44.976 513.674,-43.7273 514.8494,-42.5136 516.2124,-41.3383 517.7613,-40.2045 519.4933,-39.1154 521.4047,-38.074 523.4909,-37.083 525.746,-36.1453 528.1634,-35.2633 530.7354,-34.4396 533.4535,-33.6763 536.3082,-32.9756 539.2893,-32.3394 542.3855,-31.7694 545.5853,-31.2671 548.8761,-30.8341 552.245,-30.4714 555.6783,-30.18 559.1624,-29.9608 562.6828,-29.8143 566.2252,-29.7409 569.7748,-29.7409 573.3172,-29.8143"/>
<text text-anchor="middle" x="568" y="-60.3" font-family="NanumSquareRound" font-size="14.00" fill="#000000">김아지</text>
<text text-anchor="middle" x="568" y="-45.3" font-family="NanumSquareRound" font-size="14.00" fill="#000000">(金兒只)</text>
</a>
</g>
</g>
<!-- 11&#45;&#45;13 -->
<g id="edge12" class="edge">
<title>11&#45;&#45;13</title>
<path fill="none" stroke="#000000" d="M614.6467,-205.7298C604.2491,-172.4662 586.6019,-116.0101 576.2517,-82.8985"/>
</g>
<!-- 14 -->
<g id="node14" class="node">
<title>14</title>
<g id="a_node14"><a xlink:title="김구일&#10;(金具一)&#10;1782">
<polygon fill="none" stroke="#000000" stroke-width="2" points="715,-83 639,-83 639,-30 715,-30 715,-83"/>
<text text-anchor="middle" x="677" y="-67.8" font-family="NanumSquareRound" font-size="14.00" fill="#000000">김구일</text>
<text text-anchor="middle" x="677" y="-52.8" font-family="NanumSquareRound" font-size="14.00" fill="#000000">(金具一)</text>
<text text-anchor="middle" x="677" y="-37.8" font-family="NanumSquareRound" font-size="14.00" fill="#000000">1782</text>
</a>
</g>
<text text-anchor="middle" x="622" y="-18.8" font-family="NanumSquareRound" font-size="14.00" fill="#000000">1810</text>
<text text-anchor="middle" x="622" y="-3.8" font-family="NanumSquareRound" font-size="14.00" fill="#000000">1813</text>
</g>
<!-- 11&#45;&#45;14 -->
<g id="edge13" class="edge">
<title>11&#45;&#45;14</title>
<path fill="none" stroke="#000000" d="M631.2014,-205.7298C641.3805,-172.5624 658.6363,-116.3363 668.81,-83.1862"/>
</g>
<!-- 16 -->
<g id="node16" class="node">
<title>16</title>
<g id="a_node16"><a xlink:title="진씨&#10;(陳氏)&#10;1758">
<ellipse fill="none" stroke="#000000" cx="1139" cy="-232.4533" rx="43.6818" ry="37.4533"/>
<text text-anchor="middle" x="1139" y="-243.7533" font-family="NanumSquareRound" font-size="14.00" fill="#000000">진씨</text>
<text text-anchor="middle" x="1139" y="-228.7533" font-family="NanumSquareRound" font-size="14.00" fill="#000000">(陳氏)</text>
<text text-anchor="middle" x="1139" y="-213.7533" font-family="NanumSquareRound" font-size="14.00" fill="#000000">1758</text>
</a>
</g>
</g>
<!-- 15&#45;&#45;16 -->
<g id="edge15" class="edge">
<title>15&#45;&#45;16</title>
<path fill="none" stroke="#000000" d="M1040.2637,-232.4533C1058.5196,-232.4533 1076.7755,-232.4533 1095.0315,-232.4533"/>
</g>
<!-- 19 -->
<g id="node19" class="node">
<title>19</title>
<g id="a_node19"><a xlink:title="김구이&#10;(金具二)&#10;1780">
<polygon fill="none" stroke="#000000" points="1040,-83 964,-83 964,-30 1040,-30 1040,-83"/>
<text text-anchor="middle" x="1002" y="-67.8" font-family="NanumSquareRound" font-size="14.00" fill="#000000">김구이</text>
<text text-anchor="middle" x="1002" y="-52.8" font-family="NanumSquareRound" font-size="14.00" fill="#000000">(金具二)</text>
<text text-anchor="middle" x="1002" y="-37.8" font-family="NanumSquareRound" font-size="14.00" fill="#000000">1780</text>
</a>
</g>
</g>
<!-- 15&#45;&#45;19 -->
<g id="edge18" class="edge">
<title>15&#45;&#45;19</title>
<path fill="none" stroke="#000000" d="M1002,-205.7298C1002,-172.5624 1002,-116.3363 1002,-83.1862"/>
</g>
<!-- 20 -->
<g id="node20" class="node">
<title>20</title>
<g id="a_node20"><a xlink:title="김구삼&#10;(金具三)&#10;1782">
<polygon fill="none" stroke="#000000" points="1201,-83 1125,-83 1125,-30 1201,-30 1201,-83"/>
<text text-anchor="middle" x="1163" y="-67.8" font-family="NanumSquareRound" font-size="14.00" fill="#000000">김구삼</text>
<text text-anchor="middle" x="1163" y="-52.8" font-family="NanumSquareRound" font-size="14.00" fill="#000000">(金具三)</text>
<text text-anchor="middle" x="1163" y="-37.8" font-family="NanumSquareRound" font-size="14.00" fill="#000000">1782</text>
</a>
</g>
</g>
<!-- 15&#45;&#45;20 -->
<g id="edge19" class="edge">
<title>15&#45;&#45;20</title>
<path fill="none" stroke="#000000" d="M1026.4524,-205.7298C1056.8011,-172.5624 1108.2489,-116.3363 1138.5817,-83.1862"/>
</g>
<!-- 37 -->
<g id="node37" class="node">
<title>37</title>
<g id="a_node37"><a xlink:title="김사촌&#10;(金四寸)&#10;1762">
<polygon fill="none" stroke="#000000" points="1491,-83 1415,-83 1415,-30 1491,-30 1491,-83"/>
<text text-anchor="middle" x="1453" y="-67.8" font-family="NanumSquareRound" font-size="14.00" fill="#000000">김사촌</text>
<text text-anchor="middle" x="1453" y="-52.8" font-family="NanumSquareRound" font-size="14.00" fill="#000000">(金四寸)</text>
<text text-anchor="middle" x="1453" y="-37.8" font-family="NanumSquareRound" font-size="14.00" fill="#000000">1762</text>
</a>
</g>
</g>
<!-- 15&#45;&#45;37 -->
<g id="edge36" class="edge">
<title>15&#45;&#45;37</title>
<path fill="none" stroke="#000000" stroke-dasharray="5,2" d="M1040.1759,-210.1767C1054.8236,-202.1898 1071.8915,-193.5451 1088,-186.9767 1211.185,-136.7467 1252.8819,-154.7475 1375,-101.9767 1388.3819,-96.1939 1402.335,-88.611 1414.6781,-81.299"/>
<text text-anchor="middle" x="1280.5" y="-140.7767" font-family="NanumSquareRound" font-size="14.00" fill="#000000">사촌</text>
</g>
<!-- 18 -->
<g id="node18" class="node">
<title>18</title>
<g id="a_node18"><a xlink:title="박씨&#10;(朴氏)&#10;1764">
<ellipse fill="none" stroke="#000000" cx="1382" cy="-232.4533" rx="43.6818" ry="37.4533"/>
<text text-anchor="middle" x="1382" y="-243.7533" font-family="NanumSquareRound" font-size="14.00" fill="#000000">박씨</text>
<text text-anchor="middle" x="1382" y="-228.7533" font-family="NanumSquareRound" font-size="14.00" fill="#000000">(朴氏)</text>
<text text-anchor="middle" x="1382" y="-213.7533" font-family="NanumSquareRound" font-size="14.00" fill="#000000">1764</text>
</a>
</g>
</g>
<!-- 17&#45;&#45;18 -->
<g id="edge17" class="edge">
<title>17&#45;&#45;18</title>
<path fill="none" stroke="#000000" d="M1283.2637,-232.4533C1301.5196,-232.4533 1319.7755,-232.4533 1338.0315,-232.4533"/>
</g>
<!-- 34 -->
<g id="node34" class="node">
<title>34</title>
<g id="a_node34"><a xlink:title="이소사&#10;(李召史)&#10;1784">
<ellipse fill="none" stroke="#000000" cx="1310" cy="-56.5" rx="53.9813" ry="37.4533"/>
<text text-anchor="middle" x="1310" y="-67.8" font-family="NanumSquareRound" font-size="14.00" fill="#000000">이소사</text>
<text text-anchor="middle" x="1310" y="-52.8" font-family="NanumSquareRound" font-size="14.00" fill="#000000">(李召史)</text>
<text text-anchor="middle" x="1310" y="-37.8" font-family="NanumSquareRound" font-size="14.00" fill="#000000">1784</text>
</a>
</g>
</g>
<!-- 20&#45;&#45;34 -->
<g id="edge32" class="edge">
<title>20&#45;&#45;34</title>
<path fill="none" stroke="#000000" d="M1201.1855,-56.5C1219.463,-56.5 1237.7404,-56.5 1256.0178,-56.5"/>
</g>
<!-- 24 -->
<g id="node24" class="node">
<title>24</title>
<g id="a_node24"><a xlink:title="박씨&#10;(朴氏)&#10;1772">
<ellipse fill="none" stroke="#000000" cx="447" cy="-232.4533" rx="43.6818" ry="37.4533"/>
<text text-anchor="middle" x="447" y="-243.7533" font-family="NanumSquareRound" font-size="14.00" fill="#000000">박씨</text>
<text text-anchor="middle" x="447" y="-228.7533" font-family="NanumSquareRound" font-size="14.00" fill="#000000">(朴氏)</text>
<text text-anchor="middle" x="447" y="-213.7533" font-family="NanumSquareRound" font-size="14.00" fill="#000000">1772</text>
</a>
</g>
</g>
<!-- 23&#45;&#45;24 -->
<g id="edge23" class="edge">
<title>23&#45;&#45;24</title>
<path fill="none" stroke="#000000" d="M348.2637,-232.4533C366.5196,-232.4533 384.7755,-232.4533 403.0315,-232.4533"/>
</g>
<!-- 25 -->
<g id="node26" class="node">
<title>25</title>
<g id="a_node26"><a xlink:title="김구성&#10;(金具晟)&#10;1791">
<polygon fill="none" stroke="#000000" points="348,-83 272,-83 272,-30 348,-30 348,-83"/>
<text text-anchor="middle" x="310" y="-67.8" font-family="NanumSquareRound" font-size="14.00" fill="#000000">김구성</text>
<text text-anchor="middle" x="310" y="-52.8" font-family="NanumSquareRound" font-size="14.00" fill="#000000">(金具晟)</text>
<text text-anchor="middle" x="310" y="-37.8" font-family="NanumSquareRound" font-size="14.00" fill="#000000">1791</text>
</a>
</g>
</g>
<!-- 23&#45;&#45;25 -->
<g id="edge25" class="edge">
<title>23&#45;&#45;25</title>
<path fill="none" stroke="#000000" d="M310,-205.7298C310,-172.5624 310,-116.3363 310,-83.1862"/>
</g>
<!-- 26 -->
<g id="node25" class="node">
<title>26</title>
<g id="a_node25"><a xlink:title="박주일&#10;(朴周一)&#10;1750">
<polygon fill="none" stroke="#000000" stroke-width="2" points="503,-434.9066 427,-434.9066 427,-381.9066 503,-381.9066 503,-434.9066"/>
<text text-anchor="middle" x="465" y="-419.7066" font-family="NanumSquareRound" font-size="14.00" fill="#000000">박주일</text>
<text text-anchor="middle" x="465" y="-404.7066" font-family="NanumSquareRound" font-size="14.00" fill="#000000">(朴周一)</text>
<text text-anchor="middle" x="465" y="-389.7066" font-family="NanumSquareRound" font-size="14.00" fill="#000000">1750</text>
</a>
</g>
<text text-anchor="middle" x="410" y="-468.7066" font-family="NanumSquareRound" font-size="14.00" fill="#000000">1783</text>
<text text-anchor="middle" x="410" y="-453.7066" font-family="NanumSquareRound" font-size="14.00" fill="#000000">1792</text>
<text text-anchor="middle" x="410" y="-438.7066" font-family="NanumSquareRound" font-size="14.00" fill="#000000">1801</text>
</g>
<!-- 26&#45;&#45;24 -->
<g id="edge24" class="edge">
<title>26&#45;&#45;24</title>
<path fill="none" stroke="#000000" d="M462.2662,-381.6831C459.2174,-351.8805 454.264,-303.4605 450.8301,-269.893"/>
</g>
<!-- 27 -->
<g id="node27" class="node">
<title>27</title>
<g id="a_node27"><a xlink:title="유씨&#10;(柳氏)&#10;1747">
<ellipse fill="none" stroke="#000000" cx="602" cy="-408.4066" rx="43.6818" ry="37.4533"/>
<text text-anchor="middle" x="602" y="-419.7066" font-family="NanumSquareRound" font-size="14.00" fill="#000000">유씨</text>
<text text-anchor="middle" x="602" y="-404.7066" font-family="NanumSquareRound" font-size="14.00" fill="#000000">(柳氏)</text>
<text text-anchor="middle" x="602" y="-389.7066" font-family="NanumSquareRound" font-size="14.00" fill="#000000">1747</text>
</a>
</g>
</g>
<!-- 26&#45;&#45;27 -->
<g id="edge26" class="edge">
<title>26&#45;&#45;27</title>
<path fill="none" stroke="#000000" d="M503.2637,-408.4066C521.5196,-408.4066 539.7755,-408.4066 558.0315,-408.4066"/>
</g>
<!-- 35 -->
<g id="node35" class="node">
<title>35</title>
<g id="a_node35"><a xlink:title="박참&#10;(朴參)&#10;1778">
<polygon fill="none" stroke="#000000" points="569,-258.9533 507,-258.9533 507,-205.9533 569,-205.9533 569,-258.9533"/>
<text text-anchor="middle" x="538" y="-243.7533" font-family="NanumSquareRound" font-size="14.00" fill="#000000">박참</text>
<text text-anchor="middle" x="538" y="-228.7533" font-family="NanumSquareRound" font-size="14.00" fill="#000000">(朴參)</text>
<text text-anchor="middle" x="538" y="-213.7533" font-family="NanumSquareRound" font-size="14.00" fill="#000000">1778</text>
</a>
</g>
</g>
<!-- 26&#45;&#45;35 -->
<g id="edge34" class="edge">
<title>26&#45;&#45;35</title>
<path fill="none" stroke="#000000" d="M476.0871,-381.6831C489.8477,-348.5157 513.175,-292.2896 526.9284,-259.1395"/>
</g>
<!-- 28 -->
<g id="node28" class="node">
<title>28</title>
<g id="a_node28"><a xlink:title="이증일&#10;(李曾一)&#10;1717">
<polygon fill="none" stroke="#000000" points="1712,-596.86 1636,-596.86 1636,-543.86 1712,-543.86 1712,-596.86"/>
<text text-anchor="middle" x="1674" y="-581.66" font-family="NanumSquareRound" font-size="14.00" fill="#000000">이증일</text>
<text text-anchor="middle" x="1674" y="-566.66" font-family="NanumSquareRound" font-size="14.00" fill="#000000">(李曾一)</text>
<text text-anchor="middle" x="1674" y="-551.66" font-family="NanumSquareRound" font-size="14.00" fill="#000000">1717</text>
</a>
</g>
</g>
<!-- 29 -->
<g id="node29" class="node">
<title>29</title>
<g id="a_node29"><a xlink:title="이조일&#10;(李藻一)&#10;1742">
<polygon fill="none" stroke="#000000" points="1526,-434.9066 1450,-434.9066 1450,-381.9066 1526,-381.9066 1526,-434.9066"/>
<text text-anchor="middle" x="1488" y="-419.7066" font-family="NanumSquareRound" font-size="14.00" fill="#000000">이조일</text>
<text text-anchor="middle" x="1488" y="-404.7066" font-family="NanumSquareRound" font-size="14.00" fill="#000000">(李藻一)</text>
<text text-anchor="middle" x="1488" y="-389.7066" font-family="NanumSquareRound" font-size="14.00" fill="#000000">1742</text>
</a>
</g>
</g>
<!-- 28&#45;&#45;29 -->
<g id="edge27" class="edge">
<title>28&#45;&#45;29</title>
<path fill="none" stroke="#000000" d="M1643.2859,-543.6167C1608.7199,-513.5195 1552.9082,-464.9233 1518.4506,-434.9205"/>
</g>
<!-- 31 -->
<g id="node31" class="node">
<title>31</title>
<g id="a_node31"><a xlink:title="이조이&#10;(李藻二)&#10;1740">
<polygon fill="none" stroke="#000000" points="1781,-434.9066 1705,-434.9066 1705,-381.9066 1781,-381.9066 1781,-434.9066"/>
<text text-anchor="middle" x="1743" y="-419.7066" font-family="NanumSquareRound" font-size="14.00" fill="#000000">이조이</text>
<text text-anchor="middle" x="1743" y="-404.7066" font-family="NanumSquareRound" font-size="14.00" fill="#000000">(李藻二)</text>
<text text-anchor="middle" x="1743" y="-389.7066" font-family="NanumSquareRound" font-size="14.00" fill="#000000">1740</text>
</a>
</g>
</g>
<!-- 28&#45;&#45;31 -->
<g id="edge29" class="edge">
<title>28&#45;&#45;31</title>
<path fill="none" stroke="#000000" d="M1685.3939,-543.6167C1698.2168,-513.5195 1718.9212,-464.9233 1731.7038,-434.9205"/>
</g>
<!-- 30 -->
<g id="node30" class="node">
<title>30</title>
<g id="a_node30"><a xlink:title="강소사&#10;(姜召史)&#10;1745">
<ellipse fill="none" stroke="#000000" cx="1635" cy="-408.4066" rx="53.9813" ry="37.4533"/>
<text text-anchor="middle" x="1635" y="-419.7066" font-family="NanumSquareRound" font-size="14.00" fill="#000000">강소사</text>
<text text-anchor="middle" x="1635" y="-404.7066" font-family="NanumSquareRound" font-size="14.00" fill="#000000">(姜召史)</text>
<text text-anchor="middle" x="1635" y="-389.7066" font-family="NanumSquareRound" font-size="14.00" fill="#000000">1745</text>
</a>
</g>
</g>
<!-- 29&#45;&#45;30 -->
<g id="edge28" class="edge">
<title>29&#45;&#45;30</title>
<path fill="none" stroke="#000000" d="M1526.1855,-408.4066C1544.463,-408.4066 1562.7404,-408.4066 1581.0178,-408.4066"/>
</g>
<!-- 32 -->
<g id="node32" class="node">
<title>32</title>
<g id="a_node32"><a xlink:title="이주일&#10;(李珠一)&#10;1762">
<polygon fill="none" stroke="#000000" points="1526,-258.9533 1450,-258.9533 1450,-205.9533 1526,-205.9533 1526,-258.9533"/>
<text text-anchor="middle" x="1488" y="-243.7533" font-family="NanumSquareRound" font-size="14.00" fill="#000000">이주일</text>
<text text-anchor="middle" x="1488" y="-228.7533" font-family="NanumSquareRound" font-size="14.00" fill="#000000">(李珠一)</text>
<text text-anchor="middle" x="1488" y="-213.7533" font-family="NanumSquareRound" font-size="14.00" fill="#000000">1762</text>
</a>
</g>
</g>
<!-- 29&#45;&#45;32 -->
<g id="edge30" class="edge">
<title>29&#45;&#45;32</title>
<path fill="none" stroke="#000000" d="M1488,-381.6831C1488,-348.5157 1488,-292.2896 1488,-259.1395"/>
</g>
<!-- 33 -->
<g id="node33" class="node">
<title>33</title>
<g id="a_node33"><a xlink:title="소씨&#10;(蘇氏)&#10;1764">
<ellipse fill="none" stroke="#000000" cx="1625" cy="-232.4533" rx="43.6818" ry="37.4533"/>
<text text-anchor="middle" x="1625" y="-243.7533" font-family="NanumSquareRound" font-size="14.00" fill="#000000">소씨</text>
<text text-anchor="middle" x="1625" y="-228.7533" font-family="NanumSquareRound" font-size="14.00" fill="#000000">(蘇氏)</text>
<text text-anchor="middle" x="1625" y="-213.7533" font-family="NanumSquareRound" font-size="14.00" fill="#000000">1764</text>
</a>
</g>
</g>
<!-- 32&#45;&#45;33 -->
<g id="edge31" class="edge">
<title>32&#45;&#45;33</title>
<path fill="none" stroke="#000000" d="M1526.2637,-232.4533C1544.5196,-232.4533 1562.7755,-232.4533 1581.0315,-232.4533"/>
</g>
<!-- 32&#45;&#45;34 -->
<g id="edge33" class="edge">
<title>32&#45;&#45;34</title>
<path fill="none" stroke="#000000" d="M1460.9656,-205.7298C1428.774,-173.9083 1375.1102,-120.8616 1341.1914,-87.3328"/>
</g>
<!-- 32&#45;&#45;37 -->
<g id="edge37" class="edge">
<title>32&#45;&#45;37</title>
<path fill="none" stroke="#000000" stroke-dasharray="5,2" d="M1482.6843,-205.7298C1476.0867,-172.5624 1464.9024,-116.3363 1458.3083,-83.1862"/>
<text text-anchor="middle" x="1485.5" y="-140.7767" font-family="NanumSquareRound" font-size="14.00" fill="#000000">친구</text>
</g>
</g>
</svg>
